<?xml version="1.0" standalone="no"?>
<!DOCTYPE svg PUBLIC "-//W3C//DTD SVG 20010904//EN"
 "http://www.w3.org/TR/2001/REC-SVG-20010904/DTD/svg10.dtd">
<svg version="1.0" xmlns="http://www.w3.org/2000/svg"
 width="512.000000pt" height="512.000000pt" viewBox="0 0 512.000000 512.000000"
 preserveAspectRatio="xMidYMid meet">
<metadata>
Created by potrace 1.11, written by Peter Selinger 2001-2013
</metadata>
<g transform="translate(0.000000,512.000000) scale(0.100000,-0.100000)"
fill="#000000" stroke="none">
<path d="M710 5104 c-83 -14 -193 -53 -256 -89 -23 -14 -44 -21 -48 -18 -3 3
-6 2 -6 -4 0 -6 -17 -22 -37 -35 -21 -14 -55 -40 -76 -59 -48 -42 -147 -162
-147 -178 0 -6 -4 -11 -10 -11 -5 0 -12 -11 -16 -25 -3 -14 -11 -25 -17 -25
-6 0 -7 -3 -4 -7 4 -3 1 -16 -6 -27 -16 -25 -47 -103 -53 -131 -2 -11 -10 -49
-17 -85 -11 -53 -13 -393 -12 -1875 2 -1803 2 -1810 22 -1886 12 -42 36 -107
54 -145 18 -38 31 -72 31 -77 -1 -4 2 -7 7 -7 5 0 21 -20 36 -46 39 -66 211
-234 240 -234 3 0 18 -9 33 -20 36 -27 195 -93 186 -77 -6 9 -5 9 7 0 45 -36
70 -37 1919 -38 1795 -2 1823 -1 1948 29 89 21 216 84 296 146 60 46 183 179
178 193 -1 4 3 7 8 7 6 0 10 7 10 15 0 8 5 15 10 15 6 0 10 7 10 15 0 8 4 15
10 15 5 0 9 3 8 8 -1 4 5 21 15 38 9 17 13 34 10 38 -4 3 -2 6 4 6 6 0 19 28
29 62 20 70 21 73 31 143 9 62 10 3603 0 3664 -7 50 -56 213 -66 221 -3 3 -17
28 -31 55 -14 28 -34 60 -45 73 -11 13 -20 27 -19 30 0 8 -125 133 -169 170
-15 12 -31 22 -36 22 -5 0 -16 6 -23 13 -12 12 -141 79 -160 83 -5 1 -9 2 -10
4 -2 1 -10 3 -18 5 -8 3 -42 12 -75 21 -55 16 -212 17 -1865 19 -1428 1 -1821
-1 -1880 -11z"/>
</g>
</svg>
