<svg height="512" viewBox="0 0 512 512" width="512" xmlns="http://www.w3.org/2000/svg"><g id="Flat"><path d="m68 61.775h16v124.451h-16z" fill="#c7c7c5" transform="matrix(.707 -.707 .707 .707 -65.421 90.059)"/><path d="m104 72-80 80v-80z" fill="#f35244"/><path d="m272 248v240h-160v-240a120.019 120.019 0 0 1 24-72 120.033 120.033 0 0 0 24-72v-32h64v32a119.819 119.819 0 0 0 6.16 37.95c1.13 3.4 2.42 6.76 3.86 10.05a119.6 119.6 0 0 0 13.98 24 120 120 0 0 1 24 72z" fill="#5f9548"/><path d="m272 248v240h-24v-240a120 120 0 0 0 -24-72 119.6 119.6 0 0 1 -13.98-24c-1.44-3.29-2.73-6.65-3.86-10.05a119.819 119.819 0 0 1 -6.16-37.95v-32h24v32a119.819 119.819 0 0 0 6.16 37.95c1.13 3.4 2.42 6.76 3.86 10.05a119.6 119.6 0 0 0 13.98 24 120 120 0 0 1 24 72z" fill="#5d9146"/><path d="m160 24h64v48h-64z" fill="#c7c7c5"/><path d="m272 248v240h-160v-240a120.019 120.019 0 0 1 24-72 119.6 119.6 0 0 0 13.98-24h84.04a119.6 119.6 0 0 0 13.98 24 120 120 0 0 1 24 72z" fill="#51803d"/><path d="m272 248v240h-24v-240a120 120 0 0 0 -24-72 119.6 119.6 0 0 1 -13.98-24h24a119.6 119.6 0 0 0 13.98 24 120 120 0 0 1 24 72z" fill="#4f7a3d"/><path d="m112 248h160v176h-160z" fill="#c7c7c5"/><path d="m248 248h24v176h-24z" fill="#bfbfbd"/><path d="m488 200v50.39a341.248 341.248 0 0 1 -12 89.61 340.748 340.748 0 0 0 -12 89.61v58.39h-128v-58.39a339.807 339.807 0 0 0 -3.02-45.21 340.326 340.326 0 0 0 -8.98-44.4 340.748 340.748 0 0 1 -12-89.61v-50.39z" fill="#ffb531"/><path d="m488 200v50.39a341.248 341.248 0 0 1 -12 89.61 340.748 340.748 0 0 0 -12 89.61v58.39h-57.15v-58.39a340.137 340.137 0 0 1 12-89.61 340.331 340.331 0 0 0 12-89.61v-50.39z" fill="#ffae1f"/><path d="m384 296-5.33 64-10.67 128h-144l-10.67-128-5.33-64z" fill="#e0e0de"/><path d="m384 296-5.33 64-10.67 128h-56l10.67-128 5.33-64z" fill="#d6d6d4"/><path d="m464 152h-128a24 24 0 0 0 -24 24v24h88a16 16 0 0 1 16 16v40a16 16 0 0 0 16 16 16 16 0 0 0 16-16v-40a16 16 0 0 1 16-16h24v-24a24 24 0 0 0 -24-24z" fill="#e0e0de"/><path d="m378.67 360-10.67 128h-144l-10.67-128z" fill="#fa6d00"/><path d="m378.67 360-10.67 128h-56l10.67-128z" fill="#f86400"/><path d="m256 400h48v48h-48z" fill="#ff7d19"/><path d="m64 456h64a32 32 0 0 1 32 32 0 0 0 0 1 0 0h-128a0 0 0 0 1 0 0 32 32 0 0 1 32-32z" fill="#e0e0de"/><path d="m80 360h32v96h-32z" fill="#d6d6d4"/><path d="m166.57 280.2a147.988 147.988 0 0 1 1.43 20.51v11.29a72 72 0 1 1 -144 0v-11.29a148.14 148.14 0 0 1 5.69-40.63 147.84 147.84 0 0 0 5.69-40.62 149.17 149.17 0 0 0 -1.28-19.46q-.855-6.345-2.24-12.63l-7.86-35.37h144l-7.86 35.37q-1.395 6.285-2.24 12.63a147.908 147.908 0 0 0 4.41 60.08 147.517 147.517 0 0 1 4.26 20.12z" fill="#e0e0de"/><path d="m166.57 280.2a147.988 147.988 0 0 1 1.43 20.51v11.29a72.043 72.043 0 0 1 -96 67.9 72.033 72.033 0 0 0 48-67.9v-11.29a147.988 147.988 0 0 0 -1.43-20.51 147.517 147.517 0 0 0 -4.26-20.12 147.908 147.908 0 0 1 -4.41-60.08q.855-6.345 2.24-12.63l7.86-35.37h48l-7.86 35.37q-1.395 6.285-2.24 12.63a147.908 147.908 0 0 0 4.41 60.08 147.517 147.517 0 0 1 4.26 20.12z" fill="#d6d6d4"/><path d="m168 300.71v11.29a72 72 0 1 1 -144 0v-11.29a148.14 148.14 0 0 1 5.69-40.63 147.84 147.84 0 0 0 5.69-40.62 149.17 149.17 0 0 0 -1.28-19.46h123.8a147.908 147.908 0 0 0 4.41 60.08 147.517 147.517 0 0 1 4.26 20.12 147.988 147.988 0 0 1 1.43 20.51z" fill="#f98500"/><path d="m168 300.71v11.29a72.043 72.043 0 0 1 -96 67.9 72.033 72.033 0 0 0 48-67.9v-11.29a147.988 147.988 0 0 0 -1.43-20.51 147.517 147.517 0 0 0 -4.26-20.12 147.908 147.908 0 0 1 -4.41-60.08h48a147.908 147.908 0 0 0 4.41 60.08 147.517 147.517 0 0 1 4.26 20.12 147.988 147.988 0 0 1 1.43 20.51z" fill="#f77c00"/><path d="m124.284 332.284a40 40 0 0 0 0-56.568l-56.568 56.568a40 40 0 0 0 56.568 0z" fill="#ffb531"/><path d="m64 248h16v16h-16z" fill="#ff9419"/><path d="m104 224h16v16h-16z" fill="#ff9419"/><g fill="#ffbf57"><path d="m352 232h16v16h-16z"/><path d="m416 320h16v16h-16z"/><path d="m400 384h16v16h-16z"/></g><path d="m200 24h24v48h-24z" fill="#bfbfbd"/><path d="m104 72-80 80v-39.61a413.669 413.669 0 0 0 68.21-40.39z" fill="#e64c3f"/></g></svg>