<svg id="Capa_1" enable-background="new 0 0 495.151 495.151" height="512" viewBox="0 0 495.151 495.151" width="512" xmlns="http://www.w3.org/2000/svg"><g><g><path d="m113.177 293.836v29.813 37.103c0 74.226 60.172 134.399 134.399 134.399s134.399-60.172 134.399-134.399v-37.103-29.813l-133.192-10zm134.398 141.081c-76.671 0-101.343-49.873-101.559-111.268h203.118c-.215 61.395-24.583 111.268-101.559 111.268z" fill="#80b6fc"/></g><g><path d="m273.977 356.637h-52.803c-16.347 0-29.598-13.252-29.598-29.598v-33.203l57.206-10 54.793 10v33.203c0 16.347-13.251 29.598-29.598 29.598z" fill="#bed9fd"/></g><g><path d="m335.987 88.412c0-49.248-40.266-89.091-89.671-88.403-48.512.675-87.716 40.95-87.146 89.463.176 14.956 4.066 29.017 10.79 41.306 16.401 29.975 25.425 63.424 25.425 97.593v21.661l52.19 10 52.19-10v-23.456c0-33.49 9.085-66.192 25.268-95.512 6.981-12.647 10.954-27.185 10.954-42.652z" fill="#ffdecf"/></g><g><path d="m246.316.009c-4.665.065-9.242.499-13.708 1.269 41.668 7.138 73.379 43.431 73.379 87.134 0 15.467-3.973 30.006-10.953 42.652-16.184 29.32-25.268 62.022-25.268 95.512v33.457l30-10v-23.456c0-33.49 9.085-66.192 25.268-95.512 6.98-12.646 10.953-27.185 10.953-42.652 0-49.249-40.266-89.092-89.671-88.404z" fill="#ffcdbe"/></g><g><path d="m461.365 293.836h-427.579c-12.096 0-21.902-9.806-21.902-21.902 0-12.096 9.806-21.902 21.902-21.902h427.578c12.096 0 21.902 9.806 21.902 21.902.001 12.096-9.805 21.902-21.901 21.902z" fill="#e592b8"/></g></g></svg>