<svg height="512" viewBox="0 0 512 512" width="512" xmlns="http://www.w3.org/2000/svg"><g id="Flat"><path d="m482.76 343.72a102.047 102.047 0 0 0 0 64.56 102.1 102.1 0 0 1 5.24 32.29v19.15a28.284 28.284 0 0 1 -48.28 20l-7.72-7.72-4.69 4.69a38.627 38.627 0 0 1 -54.62 0l-4.69-4.69-7.72 7.72a28.284 28.284 0 0 1 -48.28-20v-19.15a102.175 102.175 0 0 1 5.24-32.29 102.047 102.047 0 0 0 0-64.56 101.775 101.775 0 0 1 -5.23-31.72c-.01-.19-.01-.38-.01-.57v-111.43a77.257 77.257 0 0 1 22.63-54.63l10.74-10.74a77.376 77.376 0 0 0 22.21-46.63 75.989 75.989 0 0 0 .42-8v-16h64v16a75.989 75.989 0 0 0 .42 8 77.376 77.376 0 0 0 22.21 46.63l10.74 10.74a77.267 77.267 0 0 1 22.63 54.63v111.43c0 .19 0 .38-.01.57a100.42 100.42 0 0 1 -1.31 15.79 101.777 101.777 0 0 1 -3.92 15.93z" fill="#ebebe9"/><path d="m482.76 343.72a102.047 102.047 0 0 0 0 64.56 102.1 102.1 0 0 1 5.24 32.29v19.15a28.284 28.284 0 0 1 -48.28 20l-7.72-7.72-4.69 4.69a38.627 38.627 0 0 1 -54.62 0l-4.69-4.69-7.72 7.72a28.284 28.284 0 0 1 -48.28-20v-19.15a102.175 102.175 0 0 1 5.24-32.29 102.185 102.185 0 0 0 0-64.56 101.775 101.775 0 0 1 -5.23-31.72h-.01v-112a77.257 77.257 0 0 1 22.63-54.63l10.74-10.74a76.975 76.975 0 0 0 15.68-22.63h77.9a76.975 76.975 0 0 0 15.68 22.63l10.74 10.74a77.191 77.191 0 0 1 22.1 45.66 76.452 76.452 0 0 1 .53 8.97v112h-.01a100.42 100.42 0 0 1 -1.31 15.79 101.777 101.777 0 0 1 -3.92 15.93z" fill="#7eb457"/><path d="m482.76 343.72a102.047 102.047 0 0 0 0 64.56 102.1 102.1 0 0 1 5.24 32.29v19.15a28.284 28.284 0 0 1 -48.28 20l-7.72-7.72-4.69 4.69a38.627 38.627 0 0 1 -54.62 0l-4.69-4.69-7.72 7.72a28.284 28.284 0 0 1 -48.28-20v-19.15a102.175 102.175 0 0 1 5.24-32.29 101.849 101.849 0 0 0 4.31-45.98c63.25-36.99 120.79-92.21 165.92-171.27a76.452 76.452 0 0 1 .53 8.97v112h-.01a100.42 100.42 0 0 1 -1.31 15.79 101.777 101.777 0 0 1 -3.92 15.93z" fill="#79ad54"/><path d="m312 200h176v112h-176z" fill="#d0d24b"/><path d="m488 200v112h-97.27c33.74-30.06 64.68-67.02 91.52-112z" fill="#c7c934"/><path d="m336 224h16v16h-16z" fill="#dee051"/><path d="m336 256h16v32h-16z" fill="#dee051"/><path d="m432.42 88h-64.84a75.989 75.989 0 0 0 .42-8v-16h64v16a75.989 75.989 0 0 0 .42 8z" fill="#e0e0de"/><path d="m376 24h48a8 8 0 0 1 8 8v32a0 0 0 0 1 0 0h-64a0 0 0 0 1 0 0v-32a8 8 0 0 1 8-8z" fill="#7eb457"/><path d="m360 56h80v16h-80z" fill="#ebebe9"/><path d="m194.76 343.72a102.047 102.047 0 0 0 0 64.56 102.1 102.1 0 0 1 5.24 32.29v19.15a28.284 28.284 0 0 1 -48.28 20l-7.72-7.72-4.69 4.69a38.627 38.627 0 0 1 -54.62 0l-4.69-4.69-7.72 7.72a28.284 28.284 0 0 1 -48.28-20v-19.15a102.175 102.175 0 0 1 5.24-32.29 102.156 102.156 0 0 0 5.24-32.28 102.156 102.156 0 0 0 -5.24-32.28 101.775 101.775 0 0 1 -5.23-31.72c-.01-.19-.01-.38-.01-.57v-111.43a77.257 77.257 0 0 1 22.63-54.63l10.74-10.74a76.975 76.975 0 0 0 15.68-22.63 76.771 76.771 0 0 0 6.53-24 75.989 75.989 0 0 0 .42-8v-16h64v16a75.989 75.989 0 0 0 .42 8 77.376 77.376 0 0 0 22.21 46.63l10.74 10.74a77.267 77.267 0 0 1 22.63 54.63v111.43c0 .19 0 .38-.01.57a100.42 100.42 0 0 1 -1.31 15.79 101.777 101.777 0 0 1 -3.92 15.93z" fill="#ebebe9"/><path d="m194.76 343.72a102.047 102.047 0 0 0 0 64.56 102.1 102.1 0 0 1 5.24 32.29v19.15a28.284 28.284 0 0 1 -48.28 20l-7.72-7.72-4.69 4.69a38.627 38.627 0 0 1 -54.62 0l-4.69-4.69-7.72 7.72a28.284 28.284 0 0 1 -48.28-20v-19.15a102.175 102.175 0 0 1 5.24-32.29 102.156 102.156 0 0 0 5.24-32.28 101.391 101.391 0 0 0 -.93-13.7 102.56 102.56 0 0 0 -4.31-18.58 101.775 101.775 0 0 1 -5.23-31.72h-.01v-112a77.257 77.257 0 0 1 22.63-54.63l10.74-10.74a76.975 76.975 0 0 0 15.68-22.63h77.9a76.975 76.975 0 0 0 15.68 22.63l10.74 10.74a77.191 77.191 0 0 1 22.1 45.66 76.452 76.452 0 0 1 .53 8.97v112h-.01a100.42 100.42 0 0 1 -1.31 15.79 101.777 101.777 0 0 1 -3.92 15.93z" fill="#fa6d00"/><path d="m194.76 343.72a102.047 102.047 0 0 0 0 64.56 102.1 102.1 0 0 1 5.24 32.29v19.15a28.284 28.284 0 0 1 -48.28 20l-7.72-7.72-4.69 4.69a38.627 38.627 0 0 1 -54.62 0l-4.69-4.69-7.72 7.72a28.284 28.284 0 0 1 -48.28-20v-19.15a102.175 102.175 0 0 1 5.24-32.29 102.156 102.156 0 0 0 5.24-32.28 101.391 101.391 0 0 0 -.93-13.7c63.25-36.99 120.79-92.21 165.92-171.27a76.452 76.452 0 0 1 .53 8.97v112h-.01a100.42 100.42 0 0 1 -1.31 15.79 101.777 101.777 0 0 1 -3.92 15.93z" fill="#f86400"/><path d="m24 200h176v112h-176z" fill="#f98500"/><path d="m200 200v112h-97.27c33.74-30.06 64.68-67.02 91.52-112z" fill="#f77c00"/><path d="m48 224h16v16h-16z" fill="#ff9419"/><path d="m48 256h16v32h-16z" fill="#ff9419"/><path d="m144.42 88h-64.84a75.989 75.989 0 0 0 .42-8v-16h64v16a75.989 75.989 0 0 0 .42 8z" fill="#e0e0de"/><path d="m88 24h48a8 8 0 0 1 8 8v32a0 0 0 0 1 0 0h-64a0 0 0 0 1 0 0v-32a8 8 0 0 1 8-8z" fill="#fa6d00"/><path d="m72 56h80v16h-80z" fill="#ebebe9"/><path d="m338.76 343.72a102.047 102.047 0 0 0 0 64.56 102.1 102.1 0 0 1 5.24 32.29v19.15a28.284 28.284 0 0 1 -48.28 20l-7.72-7.72-4.69 4.69a38.627 38.627 0 0 1 -54.62 0l-4.69-4.69-7.72 7.72a28.284 28.284 0 0 1 -48.28-20v-19.15a102.175 102.175 0 0 1 5.24-32.29 102.047 102.047 0 0 0 0-64.56 101.775 101.775 0 0 1 -5.23-31.72c-.01-.19-.01-.38-.01-.57v-111.43a77.257 77.257 0 0 1 22.63-54.63l10.74-10.74a77.376 77.376 0 0 0 22.21-46.63 75.989 75.989 0 0 0 .42-8v-16h64v16a75.989 75.989 0 0 0 .42 8 77.376 77.376 0 0 0 22.21 46.63l10.74 10.74a77.267 77.267 0 0 1 22.63 54.63v111.43c0 .19 0 .38-.01.57a100.42 100.42 0 0 1 -1.31 15.79 101.777 101.777 0 0 1 -3.92 15.93z" fill="#ebebe9"/><path d="m338.76 343.72a102.047 102.047 0 0 0 0 64.56 102.1 102.1 0 0 1 5.24 32.29v19.15a28.284 28.284 0 0 1 -48.28 20l-7.72-7.72-4.69 4.69a38.627 38.627 0 0 1 -54.62 0l-4.69-4.69-7.72 7.72a28.284 28.284 0 0 1 -48.28-20v-19.15a102.175 102.175 0 0 1 5.24-32.29 102.185 102.185 0 0 0 0-64.56 101.775 101.775 0 0 1 -5.23-31.72h-.01v-112a77.257 77.257 0 0 1 22.63-54.63l10.74-10.74a76.975 76.975 0 0 0 15.68-22.63h77.9a76.975 76.975 0 0 0 15.68 22.63l10.74 10.74a77.191 77.191 0 0 1 22.1 45.66 76.452 76.452 0 0 1 .53 8.97v112h-.01a100.42 100.42 0 0 1 -1.31 15.79 101.777 101.777 0 0 1 -3.92 15.93z" fill="#693924"/><path d="m338.76 343.72a102.047 102.047 0 0 0 0 64.56 102.1 102.1 0 0 1 5.24 32.29v19.15a28.284 28.284 0 0 1 -48.28 20l-7.72-7.72-4.69 4.69a38.627 38.627 0 0 1 -54.62 0l-4.69-4.69-7.72 7.72a28.284 28.284 0 0 1 -48.28-20v-19.15a102.175 102.175 0 0 1 5.24-32.29 101.849 101.849 0 0 0 4.31-45.98c63.25-36.99 120.79-92.21 165.92-171.27a76.452 76.452 0 0 1 .53 8.97v112h-.01a100.42 100.42 0 0 1 -1.31 15.79 101.777 101.777 0 0 1 -3.92 15.93z" fill="#5c2e1a"/><path d="m168 200h176v112h-176z" fill="#f35244"/><path d="m344 200v112h-97.27c33.74-30.06 64.68-67.02 91.52-112z" fill="#e64c3f"/><path d="m192 224h16v16h-16z" fill="#fc685b"/><path d="m192 256h16v32h-16z" fill="#fc685b"/><path d="m288.42 88h-64.84a75.989 75.989 0 0 0 .42-8v-16h64v16a75.989 75.989 0 0 0 .42 8z" fill="#e0e0de"/><path d="m232 24h48a8 8 0 0 1 8 8v32a0 0 0 0 1 0 0h-64a0 0 0 0 1 0 0v-32a8 8 0 0 1 8-8z" fill="#f35244"/><path d="m216 56h80v16h-80z" fill="#ebebe9"/><path d="m424 248v58.67a124.167 124.167 0 0 1 -13.12 55.56 124.666 124.666 0 0 0 -12.75 46.04l-6.13 79.73h-96l-6.13-79.73a124.556 124.556 0 0 0 -12.75-46.04 123.993 123.993 0 0 1 -13.12-55.56v-58.67z" fill="#ebebe9"/><path d="m424 288v18.67c0 3.59-.16 7.17-.46 10.73a124.22 124.22 0 0 1 -12.66 44.83 124.666 124.666 0 0 0 -12.75 46.04l-6.13 79.73h-96l-3.15-40.96-2.98-38.77a124.556 124.556 0 0 0 -12.75-46.04 123.993 123.993 0 0 1 -13.12-55.56v-18.67z" fill="#f98500"/><path d="m423.54 317.4a124.22 124.22 0 0 1 -12.66 44.83 124.666 124.666 0 0 0 -12.75 46.04l-6.13 79.73h-96l-3.15-40.96c47.3-30.58 91.76-72.89 130.69-129.64z" fill="#f77c00"/><g fill="#ff9419"><path d="m320 424h16v16h-16z"/><path d="m344 392h16v16h-16z"/><path d="m328 336h16v16h-16z"/></g></g></svg>