<svg height="464pt" viewBox="0 0 464 464.00607" width="464pt" xmlns="http://www.w3.org/2000/svg"><path d="m208.003906 160.007812h240v256h-240zm0 0" fill="#ff7230"/><g fill="#d6d9db"><path d="m192.003906 128.007812h272v32h-272zm0 0"/><path d="m192.003906 416.007812h272v32h-272zm0 0"/><path d="m343.203125 43.269531c-68.167969-33.421875-128.480469-51.261719-134.679687-39.792969-6.199219 11.472657 44.054687 47.832032 112.28125 81.265626 68.222656 33.433593 128.476562 51.265624 134.679687 39.792968 6.199219-11.472656-44.058594-47.832031-112.28125-81.265625zm0 0"/></g><path d="m336.003906 272.007812v128c-.019531 5.398438-.726562 10.773438-2.097656 16h32c1.371094-5.226562 2.078125-10.601562 2.097656-16v-128c0-35.347656-28.65625-64-64-64h-32c35.34375 0 64 28.652344 64 64zm0 0" fill="#f26522"/><path d="m192.003906 416.007812h184v32h-184zm0 0" fill="#cccfd1"/><path d="m64.003906 208.007812h208c35.34375 0 64 28.652344 64 64v80c0 35.34375-28.65625 64-64 64h-208c-35.347656 0-63.99999975-28.65625-63.99999975-64v-80c0-35.347656 28.65234375-64 63.99999975-64zm0 0" fill="#e3584b"/><path d="m64.003906 256.007812h208c35.34375 0 64 28.652344 64 64v80c0 35.34375-28.65625 64-64 64h-208c-35.347656 0-63.99999975-28.65625-63.99999975-64v-80c0-35.347656 28.65234375-64 63.99999975-64zm0 0" fill="#d6d9db"/><path d="m304.003906 320.007812v80c0 17.671876-14.328125 32-32 32h-208c-17.675781 0-32-14.328124-32-32v-80c0-17.675781 14.324219-32 32-32h208c17.671875 0 32 14.324219 32 32zm0 0" fill="#b8bbbd"/><path d="m270.859375 325.71875v68.574219c0 7.574219-6.140625 13.714843-13.710937 13.714843h-178.289063c-7.574219 0-13.710937-6.140624-13.710937-13.714843v-68.574219c0-7.574219 6.136718-13.710938 13.710937-13.710938h178.289063c7.570312 0 13.710937 6.136719 13.710937 13.710938zm0 0" fill="#c2c5c7"/><path d="m272.003906 288.007812h-16.113281c-29.664063 57.28125-72.582031 106.648438-125.175781 144h141.289062c17.671875 0 32-14.328124 32-32v-80c0-17.675781-14.328125-32-32-32zm0 0" fill="#b8bbbd"/><path d="m155.585938 333.214844c-7.875-6.664063-18.285157-9.53125-28.464844-7.839844l-48.652344 8.109375c-12.960938 2.167969-22.457031 13.382813-22.457031 26.523437 0 13.136719 9.496093 24.351563 22.457031 26.519532l48.652344 8.109375c15.585937 2.59375 30.984375-5.539063 37.625-19.871094s2.894531-31.339844-9.160156-41.550781zm-83.582032 26.792968c-.007812-5.328124 3.839844-9.875 9.09375-10.746093l14.90625-2.480469v26.449219l-14.898437-2.480469c-5.257813-.867188-9.109375-5.414062-9.101563-10.742188zm73.238282 14.574219c-4.285157 3.632813-9.953126 5.195313-15.496094 4.273438l-17.742188-2.953125v-31.792969l17.742188-2.953125c8.484375-1.417969 16.871094 3.003906 20.488281 10.808594 3.617187 7.800781 1.574219 17.0625-4.992187 22.617187zm0 0" fill="#d6d9db"/><path d="m208.003906 160.007812h240v24h-240zm0 0" fill="#f26522"/></svg>