<svg xmlns="http://www.w3.org/2000/svg" height="591pt" version="1.1" viewBox="1 -168 591.6 591" width="591pt">
<g id="surface1">
<path d="M 449.101562 82.070312 L 519.089844 12.082031 L 494.175781 7.929688 C 374.175781 -12.078125 250.9375 8.125 143.589844 65.375 L 112.277344 82.070312 Z M 449.101562 82.070312 " style=" stroke:none;fill-rule:nonzero;fill:rgb(41.176471%,80%,84.313725%);fill-opacity:1;" />
<path d="M 421.269531 0.78125 L 285.792969 82.070312 L 449.101562 82.070312 L 519.089844 12.082031 L 494.175781 7.929688 C 470.058594 3.9375 445.703125 1.546875 421.269531 0.78125 Z M 421.269531 0.78125 " style=" stroke:none;fill-rule:nonzero;fill:rgb(38.039216%,74.117647%,78.039216%);fill-opacity:1;" />
<path d="M 561.378906 41.242188 L 571.585938 20.828125 L 519.089844 12.082031 L 449.101562 82.070312 L 112.277344 82.070312 L 64.976562 92.585938 C 36.785156 98.851562 12.921875 117.488281 0 143.3125 L 0 214.761719 L 540.964844 214.761719 L 592 184.140625 L 592 92.277344 Z M 561.378906 41.242188 " style=" stroke:none;fill-rule:nonzero;fill:rgb(26.27451%,58.039216%,80%);fill-opacity:1;" />
<path d="M 0 153.519531 L 0 214.761719 L 540.964844 214.761719 L 592 184.140625 L 592 153.519531 Z M 0 153.519531 " style=" stroke:none;fill-rule:nonzero;fill:rgb(24.313725%,53.72549%,74.117647%);fill-opacity:1;" />
<path d="M 102.070312 133.105469 C 68.316406 133.175781 41 160.59375 41.074219 194.347656 C 41.144531 228.101562 68.558594 255.414062 102.3125 255.34375 C 135.976562 255.273438 163.238281 228.007812 163.308594 194.347656 C 163.308594 160.519531 135.894531 133.105469 102.070312 133.105469 Z M 102.070312 133.105469 " style=" stroke:none;fill-rule:nonzero;fill:rgb(41.176471%,48.235294%,54.901961%);fill-opacity:1;" />
<path d="M 102.070312 163.726562 C 85.15625 163.726562 71.449219 177.433594 71.449219 194.347656 C 71.449219 211.257812 85.15625 224.96875 102.070312 224.96875 C 118.980469 224.96875 132.691406 211.257812 132.691406 194.347656 C 132.691406 177.433594 118.980469 163.726562 102.070312 163.726562 Z M 102.070312 163.726562 " style=" stroke:none;fill-rule:nonzero;fill:rgb(81.568627%,84.313725%,87.45098%);fill-opacity:1;" />
<path d="M 255.171875 112.691406 L 296 112.691406 L 296 133.105469 L 255.171875 133.105469 Z M 255.171875 112.691406 " style=" stroke:none;fill-rule:nonzero;fill:rgb(81.568627%,84.313725%,87.45098%);fill-opacity:1;" />
<path d="M 0 143.3125 L 30.621094 143.3125 L 30.621094 163.726562 L 0 163.726562 Z M 0 143.3125 " style=" stroke:none;fill-rule:nonzero;fill:rgb(96.078431%,68.235294%,27.058824%);fill-opacity:1;" />
<path d="M 551.171875 133.105469 L 592 133.105469 L 592 92.277344 L 520.550781 92.277344 Z M 551.171875 133.105469 " style=" stroke:none;fill-rule:nonzero;fill:rgb(86.666667%,21.960784%,10.196078%);fill-opacity:1;" />
<path d="M 366.722656 82.070312 L 378.523438 1.179688 C 371.5625 1.496094 364.621094 1.96875 357.691406 2.550781 L 346.085938 82.070312 Z M 366.722656 82.070312 " style=" stroke:none;fill-rule:nonzero;fill:rgb(31.764706%,61.568627%,65.098039%);fill-opacity:1;" />
<path d="M 346.085938 82.070312 L 326.722656 214.761719 L 347.359375 214.761719 L 366.722656 82.070312 Z M 346.085938 82.070312 " style=" stroke:none;fill-rule:nonzero;fill:rgb(21.176471%,47.058824%,65.098039%);fill-opacity:1;" />
<path d="M 489.929688 133.105469 C 456.175781 133.175781 428.863281 160.59375 428.933594 194.347656 C 429.007812 228.101562 456.421875 255.414062 490.175781 255.34375 C 523.839844 255.273438 551.101562 228.007812 551.171875 194.347656 C 551.171875 160.519531 523.757812 133.105469 489.929688 133.105469 Z M 489.929688 133.105469 " style=" stroke:none;fill-rule:nonzero;fill:rgb(41.176471%,48.235294%,54.901961%);fill-opacity:1;" />
<path d="M 489.929688 163.726562 C 473.019531 163.726562 459.308594 177.433594 459.308594 194.347656 C 459.308594 211.257812 473.019531 224.96875 489.929688 224.96875 C 506.84375 224.96875 520.550781 211.257812 520.550781 194.347656 C 520.550781 177.433594 506.84375 163.726562 489.929688 163.726562 Z M 489.929688 163.726562 " style=" stroke:none;fill-rule:nonzero;fill:rgb(81.568627%,84.313725%,87.45098%);fill-opacity:1;" />
</g>
</svg>