<svg xmlns="http://www.w3.org/2000/svg" height="599pt" version="1.1" viewBox="0 -67 599.36817 599" width="599pt">
<g id="surface1">
<path d="M 413.066406 382.230469 L 185.878906 382.230469 L 172.632812 360.152344 C 120.492188 273.242188 92.941406 173.785156 92.941406 72.429688 L 506.007812 72.429688 C 506.007812 173.785156 478.457031 273.230469 426.316406 360.152344 Z M 413.066406 382.230469 " style=" stroke:none;fill-rule:nonzero;fill:rgb(87.058824%,29.803922%,23.529412%);fill-opacity:1;" />
<path d="M 0 382.230469 L 598.949219 382.230469 C 598.949219 427.855469 561.960938 464.84375 516.335938 464.84375 L 82.613281 464.84375 C 36.992188 464.84375 0 427.863281 0 382.230469 Z M 0 382.230469 " style=" stroke:none;fill-rule:nonzero;fill:rgb(87.058824%,29.803922%,23.529412%);fill-opacity:1;" />
<path d="M 514.933594 134.390625 L 502.539062 134.390625 C 500.609375 151.738281 497.890625 168.953125 494.382812 186.023438 L 517.347656 186.023438 C 533.921875 186.03125 547.347656 199.488281 547.328125 216.0625 C 547.316406 228.960938 539.066406 240.402344 526.839844 244.492188 L 472.675781 262.554688 C 464.175781 286.046875 454.117188 308.953125 442.5625 331.101562 L 541.542969 298.109375 C 585.566406 283.425781 609.335938 235.839844 594.664062 191.828125 C 583.222656 157.519531 551.09375 134.378906 514.933594 134.390625 Z M 514.933594 134.390625 " style=" stroke:none;fill-rule:nonzero;fill:rgb(74.901961%,25.882353%,20%);fill-opacity:1;" />
<path d="M 289.148438 268.636719 L 185.878906 268.636719 L 185.878906 165.371094 L 237.515625 134.390625 L 289.148438 165.371094 Z M 289.148438 268.636719 " style=" stroke:none;fill-rule:nonzero;fill:rgb(83.137255%,28.235294%,22.352941%);fill-opacity:1;" />
<path d="M 170.503906 356.414062 C 171.226562 357.652344 171.898438 358.921875 172.632812 360.152344 L 185.878906 382.230469 L 413.066406 382.230469 L 426.316406 360.152344 C 427.050781 358.921875 427.722656 357.652344 428.445312 356.414062 Z M 170.503906 356.414062 " style=" stroke:none;fill-rule:nonzero;fill:rgb(83.137255%,28.235294%,22.352941%);fill-opacity:1;" />
<path d="M 227.1875 72.429688 L 247.839844 72.429688 L 247.839844 155.042969 L 227.1875 155.042969 Z M 227.1875 72.429688 " style=" stroke:none;fill-rule:nonzero;fill:rgb(83.137255%,28.235294%,22.352941%);fill-opacity:1;" />
<path d="M 268.496094 247.984375 L 165.226562 247.984375 L 165.226562 144.714844 L 216.859375 113.734375 L 268.496094 144.714844 Z M 268.496094 247.984375 " style=" stroke:none;fill-rule:nonzero;fill:rgb(99.215686%,71.372549%,18.431373%);fill-opacity:1;" />
<path d="M 227.1875 134.390625 L 206.535156 134.390625 L 206.535156 51.777344 C 206.535156 23.261719 229.65625 0.144531 258.167969 0.144531 C 286.679688 0.144531 309.800781 23.265625 309.800781 51.777344 L 309.800781 72.429688 L 289.148438 72.429688 L 289.148438 51.777344 C 289.148438 34.664062 275.277344 20.796875 258.167969 20.796875 C 241.054688 20.796875 227.1875 34.664062 227.1875 51.777344 Z M 227.1875 134.390625 " style=" stroke:none;fill-rule:nonzero;fill:rgb(52.941176%,32.54902%,22.352941%);fill-opacity:1;" />
<path d="M 268.496094 149.878906 L 170.390625 247.984375 L 268.496094 247.984375 Z M 268.496094 149.878906 " style=" stroke:none;fill-rule:nonzero;fill:rgb(100%,63.529412%,18.823529%);fill-opacity:1;" />
</g>
</svg>