<svg height="512" viewBox="0 0 512 512" width="512" xmlns="http://www.w3.org/2000/svg"><g id="Flat"><path d="m464 48v168h-80v-136a55.993 55.993 0 0 1 56-56 24 24 0 0 1 24 24z" fill="#f35244"/><path d="m407.955 87.247v-.009a7.953 7.953 0 0 1 6.109-8.323 65.579 65.579 0 0 0 25.516-12.7 60.023 60.023 0 0 0 8.92-8.715 7.992 7.992 0 0 1 10.23-1.83 8 8 0 0 1 2.131 11.982 76.188 76.188 0 0 1 -11.283 11.06 81.1 81.1 0 0 1 -31.812 15.779 8.011 8.011 0 0 1 -9.811-7.244z" fill="#fc685b"/><path d="m360 280h128v208h-128z" fill="#34507b"/><path d="m376 216h96v64h-96z" fill="#e0e0de"/><path d="m488 309.99v178.01h-128v-70.48a479.594 479.594 0 0 0 128-107.53z" fill="#2f486e"/><path d="m384 312h16v16h-16z" fill="#395a8d"/><path d="m384 344h16v112h-16z" fill="#395a8d"/><path d="m464 117.79v98.21h-80v-37.16a525.442 525.442 0 0 0 80-61.05z" fill="#e64c3f"/><circle cx="176" cy="272" fill="#34507b" r="152"/><circle cx="176" cy="272" fill="#5ac6d4" r="120"/><path d="m280 272a104.007 104.007 0 1 1 -25.41-68.11 104 104 0 0 1 25.41 68.11z" fill="#60d1e0"/><path d="m280 272a103.987 103.987 0 0 1 -178.39 72.66c57.21-32.77 110.45-78.53 152.98-140.77a103.589 103.589 0 0 1 25.41 68.11z" fill="#5ac6d4"/><path d="m328 424v40a24.006 24.006 0 0 1 -24 24h-256a24.006 24.006 0 0 1 -24-24v-40z" fill="#34507b"/><path d="m328 424v40a24.006 24.006 0 0 1 -24 24h-196.18c48.84-16.34 96.56-37.39 140.95-64z" fill="#2f486e"/><path d="m120 424 8 32h96l8-32z" fill="#283f61"/><g fill="#8adbe6"><path d="m119.431 264h113.137v16h-113.137z" transform="matrix(.707 -.707 .707 .707 -140.781 204.104)"/><path d="m110.059 248h67.882v16h-67.882z" transform="matrix(.707 -.707 .707 .707 -138.839 176.792)"/><path d="m174.059 280h67.882v16h-67.882z" transform="matrix(.707 -.707 .707 .707 -142.723 231.416)"/></g><rect fill="#f2dec2" height="40" rx="20" width="272" x="40" y="384"/><path d="m292 384h-80a20 20 0 0 1 20 20 20 20 0 0 1 -20 20h80a20 20 0 0 0 20-20 20 20 0 0 0 -20-20z" fill="#ead7bc"/><path d="m440 216h32v64h-32z" fill="#d9d9d7"/><path d="m376 264h96v16h-96z" fill="#d9d9d7"/></g></svg>