<svg height="464pt" viewBox="0 -8 464.01535 464" width="464pt" xmlns="http://www.w3.org/2000/svg"><path d="m352 279.90625h61.5c4.898438.097656 9.699219-2 12.898438-5.800781 3.203124-3.601563 4.601562-8.398438 3.601562-13.101563l-21.398438-112c-1.703124-7.796875-8.601562-13.296875-16.601562-13.097656h-56v-32h56.101562c23.898438-.402344 44.699219 16.097656 49.699219 39.398438l21.398438 112c2.699219 14.101562-1.398438 28.601562-10.898438 39.300781-9.800781 11.101562-24 17.300781-38.800781 17.199219h-61.5zm0 0" fill="#71c4d1"/><path d="m398.300781 375.804688-46.601562-271.898438.902343-40 8-39.402344-128.601562-.597656c-14.5-.601562-28.601562-4.800781-41-12.402344-13.699219-9.5-30.5-13.296875-47-10.699218l-24 4.800781 40.101562 58.300781h-.703124l.601562 40-47.300781 271.898438c-4.398438 26.199218 13.199219 51 39.300781 55.402343 2.699219.5 5.398438.699219 8.101562.699219h190.699219c26.5 0 48.097657-21.402344 48.097657-48 0-2.699219-.199219-5.402344-.597657-8.101562zm0 0" fill="#87ced9"/><path d="m364.300781 177.503906-32 7c-23.800781 4.902344-48.402343 3.800782-71.699219-3.199218-29-8.699219-60-8.199219-88.703124 1.300781l-27.097657 9-32 184.199219c-4.402343 26.199218 13.199219 50.902343 39.398438 55.402343 2.699219.398438 5.300781.699219 8 .699219h190.699219c26.5 0 48.101562-21.402344 48.101562-48 0-2.699219-.199219-5.402344-.699219-8.101562zm0 0" fill="#f0dbc2"/><path d="m272 399.90625v-88c0-39.601562-21.199219-76.101562-55.601562-95.800781l-.398438-.199219-84.800781 53.597656-18.5 106.402344c-4.398438 26.199219 13.300781 50.898438 39.402343 55.300781 2.699219.398438 5.296876.699219 8 .699219h131.597657c7.902343-8.800781 12.300781-20.199219 12.300781-32zm0 0" fill="#f0d1b1"/><path d="m0 399.90625h272c0 26.5-21.5 48-48 48h-176c-26.5 0-48-21.5-48-48zm0 0" fill="#bf7341"/><path d="m32 311.90625 152-96 .398438.199219c34.402343 19.601562 55.601562 56.199219 55.601562 95.800781zm0 0" fill="#ffc24f"/><path d="m32 311.90625v32c8.800781 0 16 7.199219 16 16s-7.199219 16-16 16v24h208v-88zm0 0" fill="#ffa230"/><g fill="#f28e13"><path d="m168 359.90625h16v16h-16zm0 0"/><path d="m96 335.90625h16v16h-16zm0 0"/></g></svg>