<svg height="464pt" viewBox="0 -24 464 464" width="464pt" xmlns="http://www.w3.org/2000/svg"><path d="m432 248h-32v-16h24v-24h16v32c0 4.417969-3.582031 8-8 8zm0 0" fill="#3181bd"/><path d="m0 0h464v304h-464zm0 0" fill="#4398d1"/><path d="m88 304h376v-304h-72zm0 0" fill="#3e8cc7"/><g fill="#d6d9db"><path d="m128 384h208v32h-208zm0 0"/><path d="m208 304h48v80h-48zm0 0"/><path d="m0 272h464v32h-464zm0 0"/></g><path d="m40 64h-16v-32c0-4.417969 3.582031-8 8-8h32v16h-24zm0 0" fill="#a7e1eb"/><path d="m208 304h48v24h-48zm0 0" fill="#c3c5c7"/></svg>