<svg height="464pt" viewBox="0 -99 464 464" width="464pt" xmlns="http://www.w3.org/2000/svg"><path d="m392 152-93.785156 46.886719c-33.023438 16.515625-69.4375 25.113281-106.359375 25.113281h-5.335938c-130.519531 0-186.519531-72-186.519531-72l6-12.496094 50 12.496094-48-24c40-48 115.441406-80 178.519531-80 35.214844-.003906 69.992188 7.816406 101.816407 22.894531l103.664062 49.105469zm0 0" fill="#e0e0de"/><path d="m318.617188 85.238281c-67.761719 72.121094-188.800782 99.050781-263.015626 109.007813 40.582032 20.382812 85.511719 30.589844 130.917969 29.753906h5.335938c36.9375.003906 73.363281-8.59375 106.402343-25.113281l93.742188-46.886719v-32zm0 0" fill="#d6d6d4"/><path d="m392 120-103.664062-49.105469c-31.824219-15.078125-66.601563-22.898437-101.816407-22.894531-63.078125 0-138.519531 32-178.519531 80l16 8h368zm0 0" fill="#348fd9"/><path d="m392 120 15.753906-35.449219c9.886719-22.21875 31.925782-36.539062 56.246094-36.550781l-32 88 32 88c-24.320312-.011719-46.359375-14.332031-56.246094-36.550781l-15.753906-35.449219zm0 0" fill="#3d4d63"/><path d="m80 128c-8.835938 0-16-7.164062-16-16s7.164062-16 16-16 16 7.164062 16 16-7.164062 16-16 16zm0-16" fill="#3d4d63"/><path d="m105.34375 191.015625-7.6875-14.03125 6.296875-3.457031c13.589844-8.0625 21.8125-22.792969 21.542969-38.589844.058594-11.292969-4.042969-22.210938-11.527344-30.664062l-10.402344-11.386719 11.832032-10.773438 10.402343 11.382813c10.21875 11.371094 15.820313 26.152344 15.695313 41.441406.402344 21.675781-11.042969 41.847656-29.855469 52.621094zm0 0" fill="#2a71ad"/><path d="m160 136v24l40 16 64-40zm0 0" fill="#3d4d63"/><path d="m4.421875 135.152344 7.15625-14.308594 63.996094 31.996094-7.15625 14.3125zm0 0" fill="#2a71ad"/><g fill="#ffb531"><path d="m186.519531 48c6.273438 0 12.519531.335938 18.753907.800781 6.449218-17.1875 14.882812-33.566406 25.125-48.800781-25.238282 0-49.066407 11.652344-64.558594 31.574219l-17.472656 19.5625c12.613281-2.070313 25.371093-3.117188 38.152343-3.136719zm0 0"/><path d="m141.816406 234.207031c15.496094 19.921875 39.320313 31.574219 64.558594 31.578125-9.484375-12.742187-16.957031-26.859375-22.160156-41.863281-18.195313-.097656-36.351563-1.757813-54.261719-4.960937zm0 0"/><path d="m312 248c-10.609375-13.304688-19.847656-27.648438-27.574219-42.808594-11.917969 5.039063-24.226562 9.097656-36.800781 12.136719 15.109375 14.390625 43.214844 30.671875 64.375 30.671875zm0 0"/></g><path d="m359.132812 104.515625 9.664063-20.003906 14.40625 6.960937-9.664063 20.003906zm0 0" fill="#3086cd"/><path d="m332.976562 91.503906 9.996094-18.339844 14.050782 7.660157-9.996094 18.339843zm0 0" fill="#3086cd"/><path d="m307.8125 79.804688 9.34375-18.996094 14.359375 7.0625-9.34375 18.996094zm0 0" fill="#3086cd"/><path d="m312 19.457031c-24.089844 0-46.808594 18.710938-62.304688 37.007813.335938.121094.671876.261718 1.015626.382812 12.339843 3.460938 24.382812 7.921875 36 13.328125 6.921874-17.617187 15.382812-34.589843 25.289062-50.71875zm0 0" fill="#ffb531"/><path d="m318.617188 85.238281c-19.796876 20.410157-42.707032 37.542969-67.882813 50.761719h141.265625v-16zm0 0" fill="#3086cd"/></svg>