<svg height="512" viewBox="0 0 58 53" width="512" xmlns="http://www.w3.org/2000/svg"><g id="Page-1" fill="none" fill-rule="evenodd"><g id="011---Fish" fill-rule="nonzero"><path id="Shape" d="m16.953 10.67c.021 0 1.924-8.568 15.963-9.916.2794436-.02355828.5559382.07130364.762061.26145385.2061229.19015021.3229303.45811302.321939.73854615l.0000063 11.246" fill="#9bc8c2"/><path id="Shape" d="m46.03 23.14c-1.4139327 1.479215-2.9096086 2.8780725-4.48 4.19-1.4537714 1.2189829-2.9908385 2.3350273-4.6 3.34-1.0123847-.636812-2.0608074-1.2144462-3.14-1.73l.19-.4v-8.79c.0008965-.2796775-.1153694-.5469501-.3205868-.7369662-.2052175-.1900162-.4806308-.2854096-.7594132-.2630338-9.89.95-13.76 5.48-15.19 8.08l.03.1c-.9383729.2156215-1.8632939.4860858-2.77.81.6708551-1.9533474 1.0121781-4.0046652 1.01-6.07-.0096487-3.903531-1.2135458-7.7106375-3.45-10.91 1.659902-.8014405 3.4040179-1.41523513 5.2-1.83h.01c5.1573316-1.17114586 10.5583992-.57963389 15.34 1.68.24.11.47.22.71.33 2.9063245 1.4292561 5.6182547 3.2237675 8.07 5.34 1.450418 1.2302433 2.8356356 2.535352 4.15 3.91.7602074.8364057.7602074 2.1135943 0 2.95z" fill="#2980ba"/><path id="Shape" d="m16 21.67c.0021781 2.0653348-.3391449 4.1166526-1.01 6.07v.01c-.8328863.2873396-1.6476969.6246177-2.44 1.01-1.1830711.5587795-2.3287923 1.1934355-3.43 1.9-3.22223764-2.1044557-6.10812236-4.6835467-8.56-7.65-.62983567-.7860645-.62983567-1.9039355 0-2.69 3.27285022-4.0015345 7.36011453-7.2604375 11.99-9.56 2.2364542 3.1993625 3.4403513 7.006469 3.45 10.91z" fill="#9bc8c2"/><circle id="Oval" cx="9" cy="18" fill="#35495e" r="1"/><path id="Shape" d="m58 31h-10c-2.88 0-5.1-1.99-6.45-3.67 1.5703914-1.3119275 3.0660673-2.710785 4.48-4.19.7602074-.8364057.7602074-2.1135943 0-2.95-1.3143644-1.374648-2.699582-2.6797567-4.15-3.91 1.37-1.59 3.46-3.28 6.12-3.28h10s0 7-5 9c5 2 5 9 5 9z" fill="#285680"/><path id="Shape" d="m22.733 24.956c-.0556162-.0002755-.1111232-.0049568-.166-.014-.5444611-.0912737-.9119584-.6064862-.821-1.151.52-3.124.236-5.455-.823-6.739-.4736711-.6014287-1.1736665-.981798-1.936-1.052-.5481499-.014157-.9839982-.4646819-.98-1.013.0038438-.5458457.447141-.9864644.993-.987 1.3304875.0755012 2.5697034.7007238 3.421 1.726 1.5 1.764 1.932 4.588 1.3 8.394-.0802897.4829462-.4984258.8367537-.988.836z" fill="#285680"/><path id="Shape" d="m27.977 22.934c-.022 0-.044 0-.065 0-.264691-.0169609-.5118013-.1383819-.686963-.3375486-.1751616-.1991667-.2640244-.4597621-.247037-.7244514.38-5.933-3.276-7.9-3.432-7.979-.4889357-.2507784-.6839257-.8490836-.4366453-1.3397978.2472803-.4907141.8441778-.6899718 1.3366453-.4462022.2.1 5 2.585 4.527 9.893-.0347127.5248171-.470037.9330429-.996.934z" fill="#285680"/><path id="Shape" d="m16.954 28.676c.015 0 1.916-8.576 15.966-9.926.2787824-.0223758.5541957.0730176.7594132.2630338.2052174.1900161.3214833.4572887.3205868.7369662l.0000051 10.25z" fill="#81ccb8"/><path id="Shape" d="m46.03 41.14c-1.4139327 1.479215-2.9096086 2.8780725-4.48 4.19-11.52 9.58-21.6 8.74-29 5.24 2.2349152-3.1963631 3.4387595-6.9998133 3.45-10.9-.0096487-3.903531-1.2135458-7.7106375-3.45-10.91.7923031-.3853823 1.6071137-.7226604 2.44-1.01v-.01c.9067061-.3239142 1.8316271-.5943785 2.77-.81 5.1573316-1.1711459 10.5583992-.5796339 15.34 1.68.24.1.47.21.71.33 1.0791926.5155538 2.1276153 1.093188 3.14 1.73 1.7330644 1.0757388 3.3812152 2.2825997 4.93 3.61 1.450418 1.2302433 2.8356356 2.535352 4.15 3.91.7602074.8364057.7602074 2.1135943 0 2.95z" fill="#3b97d3"/><path id="Shape" d="m16 39.67c-.0112405 3.9001867-1.2150848 7.7036369-3.45 10.9-4.63169063-2.2967268-8.71951228-5.5560742-11.99-9.56-.62983567-.7860645-.62983567-1.9039355 0-2.69 2.45372551-2.9675073 5.33924517-5.5496429 8.56-7.66 1.1012077-.7065645 2.2469289-1.3412205 3.43-1.9 2.2364542 3.1993625 3.4403513 7.006469 3.45 10.91z" fill="#81ccb8"/><circle id="Oval" cx="9" cy="36" fill="#35495e" r="1"/><g fill="#2980ba"><path id="Shape" d="m58 49h-10c-2.88 0-5.1-1.99-6.45-3.67 1.5703914-1.3119275 3.0660673-2.710785 4.48-4.19.7602074-.8364057.7602074-2.1135943 0-2.95-1.3143644-1.374648-2.699582-2.6797567-4.15-3.91 1.37-1.59 3.46-3.28 6.12-3.28h10s0 7-5 9c5 2 5 9 5 9z"/><path id="Shape" d="m23 40c-.5522847 0-1-.4477153-1-1 0-4.781-2.7-4.992-3.013-5-.5481499-.014157-.9839982-.4646819-.98-1.013.0038438-.5458457.447141-.9864644.993-.987.05 0 5 .08 5 7 0 .5522847-.4477153 1-1 1z"/><path id="Shape" d="m28 40c-.5522847 0-1-.4477153-1-1 0-5.32-3.413-7.088-3.447-7.1-.4942949-.2468713-.6948713-.8477051-.448-1.342s.8477051-.6948713 1.342-.448c.186.09 4.553 2.347 4.553 8.89 0 .5522847-.4477153 1-1 1z"/></g></g></g></svg>