<svg height="480pt" viewBox="-30 0 480 480.0012" width="480pt" xmlns="http://www.w3.org/2000/svg"><path d="m203.9375 64h16v352h-16zm0 0" fill="#87ced9"/><path d="m54.59375 321.832031 304.851562-175.96875 7.996094 13.855469-304.847656 175.972656zm0 0" fill="#87ced9"/><path d="m52.511719 157.195312 8-13.855468 304.839843 176-8 13.855468zm0 0" fill="#87ced9"/><g fill="#a7e1eb"><path d="m211.9375 72c-1.582031 0-3.125-.464844-4.441406-1.34375l-24-16c-2.222656-1.484375-3.558594-3.980469-3.558594-6.65625v-24c0-2.671875 1.335938-5.171875 3.558594-6.65625l24-16c2.691406-1.792969 6.191406-1.792969 8.882812 0l24 16c2.222656 1.484375 3.558594 3.984375 3.558594 6.65625v24c0 2.675781-1.335938 5.171875-3.558594 6.65625l-24 16c-1.316406.878906-2.859375 1.34375-4.441406 1.34375zm-16-28.277344 16 10.679688 16-10.664063v-15.457031l-16-10.679688-16 10.679688zm0 0"/><path d="m211.9375 480c-1.582031 0-3.125-.464844-4.441406-1.34375l-24-16c-2.222656-1.484375-3.558594-3.980469-3.558594-6.65625v-24c0-2.671875 1.335938-5.171875 3.558594-6.65625l24-16c2.691406-1.792969 6.191406-1.792969 8.882812 0l24 16c2.222656 1.484375 3.558594 3.984375 3.558594 6.65625v24c0 2.675781-1.335938 5.171875-3.558594 6.65625l-24 16c-1.316406.878906-2.859375 1.34375-4.441406 1.34375zm-16-28.277344 16 10.679688 16-10.664063v-15.441406l-16-10.695313-16 10.664063zm0 0"/><path d="m211.9375 120c-1.871094.003906-3.6875-.648438-5.128906-1.847656l-48-40 10.257812-12.304688 42.871094 35.753906 42.871094-35.738281 10.257812 12.304688-48 40c-1.445312 1.191406-3.257812 1.839843-5.128906 1.832031zm0 0"/><path d="m254.808594 414.152344-42.871094-35.75-42.871094 35.734375-10.257812-12.304688 48-40c2.96875-2.476562 7.289062-2.476562 10.257812 0l48 40zm0 0"/><path d="m35.9375 377.601562c-1.226562.007813-2.441406-.265624-3.542969-.800781l-25.863281-12.800781c-2.898438-1.429688-4.648438-4.460938-4.441406-7.6875l1.863281-28.800781c.179687-2.667969 1.679687-5.066407 4-6.398438l20.800781-12c2.316406-1.335937 5.148438-1.425781 7.542969-.238281l25.855469 12.796875c2.898437 1.433594 4.648437 4.464844 4.441406 7.6875l-1.855469 28.800781c-.179687 2.667969-1.683593 5.070313-4 6.402344l-20.800781 12c-1.21875.691406-2.597656 1.046875-4 1.039062zm-17.503906-25.601562 17.238281 8.519531 13.363281-7.710937 1.238282-19.199219-17.230469-8.535156-13.371094 7.726562zm0 0"/><path d="m389.296875 173.601562c-1.226563.007813-2.4375-.265624-3.542969-.800781l-25.863281-12.800781c-2.898437-1.429688-4.648437-4.460938-4.441406-7.6875l1.863281-28.800781c.179688-2.667969 1.683594-5.066407 4-6.398438l20.800781-12c2.316407-1.335937 5.148438-1.425781 7.542969-.238281l25.855469 12.796875c2.898437 1.433594 4.648437 4.464844 4.441406 7.6875l-1.855469 28.800781c-.179687 2.667969-1.679687 5.070313-4 6.402344l-20.800781 12c-1.21875.691406-2.597656 1.046875-4 1.039062zm-17.527344-25.601562 17.238281 8.519531 13.328126-7.71875 1.242187-19.199219-17.234375-8.511718-13.367188 7.71875zm0 0"/><path d="m97.410156 367.722656-15.769531-2.738281 9.496094-54.992187-52.382813-19.261719 5.511719-15.015625 58.648437 21.597656c3.628907 1.332031 5.789063 5.070312 5.128907 8.878906zm0 0"/><path d="m377.761719 205.855469-58.65625-21.597657c-3.625-1.335937-5.777344-5.066406-5.121094-8.871093l10.648437-61.601563 15.769532 2.734375-9.519532 54.992188 52.390626 19.265625zm0 0"/><path d="m384 375.058594c-1.402344 0-2.78125-.371094-4-1.074219l-20.796875-12c-2.320313-1.328125-3.820313-3.730469-4-6.398437l-1.851563-28.800782c-.207031-3.222656 1.539063-6.253906 4.433594-7.6875l25.855469-12.800781c2.398437-1.183594 5.226563-1.09375 7.542969.242187l20.800781 12c2.320313 1.328126 3.820313 3.730469 4 6.398438l1.847656 28.800781c.210938 3.222657-1.535156 6.253907-4.429687 7.6875l-25.855469 12.800781c-1.101563.546876-2.316406.832032-3.546875.832032zm-13.078125-24.800782 13.367187 7.71875 17.25-8.511718-1.234374-19.199219-13.367188-7.71875-17.230469 8.519531zm0 0"/><path d="m30.664062 171.058594c-1.402343 0-2.78125-.371094-4-1.074219l-20.796874-12c-2.320313-1.328125-3.820313-3.730469-4-6.398437l-1.851563-28.800782c-.207031-3.222656 1.539063-6.253906 4.433594-7.6875l25.855469-12.800781c2.398437-1.183594 5.226562-1.09375 7.542968.242187l20.800782 12c2.320312 1.328126 3.820312 3.730469 4 6.398438l1.847656 28.800781c.210937 3.222657-1.535156 6.253907-4.429688 7.6875l-25.855468 12.800781c-1.101563.546876-2.316407.832032-3.546876.832032zm-13.078124-24.800782 13.367187 7.71875 17.230469-8.519531-1.230469-19.199219-13.367187-7.71875-17.234376 8.535157zm0 0"/><path d="m322.546875 365.191406-10.640625-61.597656c-.65625-3.804688 1.5-7.53125 5.121094-8.863281l58.636718-21.601563 5.53125 15.015625-52.394531 19.273438 9.535157 55.0625zm0 0"/><path d="m42.210938 203.34375-5.53125-15.015625 52.394531-19.261719-9.511719-55.007812 15.765625-2.722656 10.640625 61.601562c.660156 3.804688-1.496094 7.539062-5.121094 8.871094zm0 0"/><path d="m131.9375 376c-2.277344 0-4.449219-.96875-5.96875-2.667969-1.515625-1.699219-2.238281-3.964843-1.984375-6.226562l9.65625-85.425781-76.96875-34.398438c-2.859375-1.277344-4.710937-4.113281-4.734375-7.246094-.023438-3.136718 1.789062-5.992187 4.632812-7.3125l79.136719-36.722656-3.769531-83.640625c-.136719-3.050781 1.476562-5.914063 4.160156-7.378906 2.679688-1.464844 5.960938-1.273438 8.457032.492187l67.382812 47.71875 67.375-47.71875c2.558594-1.835937 5.960938-2.003906 8.683594-.421875 2.726562 1.582031 4.269531 4.617188 3.941406 7.75l-7.777344 82.089844 83.097656 37.832031c2.878907 1.3125 4.710938 4.195313 4.679688 7.359375-.035156 3.164063-1.925781 6.011719-4.832031 7.261719l-81.753907 35.242188 6.5625 84.800781c.238282 3.089843-1.332031 6.042969-4.03125 7.574219-2.699218 1.527343-6.039062 1.359374-8.570312-.433594l-67.605469-47.886719-75.472656 48.105469c-1.285156.816406-2.773437 1.253906-4.296875 1.253906zm-52.695312-136.144531 66.269531 29.601562c3.183593 1.421875 5.078125 4.738281 4.691406 8.199219l-8.433594 74.585938 65.871094-41.984376c2.742187-1.746093 6.265625-1.660156 8.921875.214844l58.085938 41.144532-5.6875-73.496094c-.261719-3.40625 1.664062-6.605469 4.800781-7.960938l70.398437-30.398437-71.886718-32.753907c-3.085938-1.410156-4.949219-4.617187-4.640626-8l6.664063-70.398437-57.765625 40.917969c-2.773438 1.964844-6.480469 1.964844-9.25 0l-58.617188-41.527344 3.273438 72.640625c.144531 3.242187-1.679688 6.25-4.625 7.617187zm0 0"/></g></svg>