<svg height="512" viewBox="0 0 512 512" width="512" xmlns="http://www.w3.org/2000/svg"><g id="Flat"><path d="m186.661 209.483a34.4 34.4 0 0 0 -20.466-1.591 20.35 20.35 0 0 1 -21.389-8.517 34.579 34.579 0 0 0 -57.665.251l-.038.059a8.8 8.8 0 0 1 -11.714 3.056 34.572 34.572 0 1 0 -25.667 63.553 9.025 9.025 0 0 1 6.754 10.347l-.015.08a34.586 34.586 0 0 0 41.718 39.823 20.349 20.349 0 0 1 21.389 8.516 34.565 34.565 0 0 0 39.832 13.54 21.076 21.076 0 0 1 22.955 6.256 34.408 34.408 0 0 0 13.545 9.714c25.7 10.23 100.1-27.126 100.1-27.126s-28.383-78.284-54.079-88.516a34.414 34.414 0 0 0 -16.52-2.256 21.075 21.075 0 0 1 -20.973-11.235 34.418 34.418 0 0 0 -17.767-15.954z" fill="#58853f"/><path d="m188.861 135.123a34.4 34.4 0 0 0 -19.566-6.212 20.349 20.349 0 0 1 -18.886-13.166 34.58 34.58 0 0 0 -56.209-12.894l-.05.048a8.8 8.8 0 0 1 -12.1.307 34.572 34.572 0 1 0 -39.471 56.034 9.026 9.026 0 0 1 4.22 11.614l-.033.074a34.585 34.585 0 0 0 31.547 48.28 20.35 20.35 0 0 1 18.887 13.166 34.566 34.566 0 0 0 35.7 22.256 21.073 21.073 0 0 1 20.926 11.321 34.422 34.422 0 0 0 10.974 12.549c22.689 15.817 103.646-3.607 103.646-3.607s-9.8-82.692-32.49-98.509a34.4 34.4 0 0 0 -15.571-5.96 21.078 21.078 0 0 1 -17.862-15.719 34.423 34.423 0 0 0 -13.662-19.582z" fill="#649441"/><path d="m272.998 268.313-48.252-33.363-9.789-54.815-15.75 2.812 6.997 39.183-32.45-22.437-9.848-55.147-15.75 2.812 7.057 39.515-26.785-18.52-8.181-45.814-15.75 2.813 5.389 30.181-49.336-34.113-9.1 13.16 48.035 33.213-28.05 5.009 2.812 15.75 43.919-7.843 26.994 18.665-37.972 6.78 2.812 15.75 53.841-9.613 32.703 22.612-38.306 6.84 2.813 15.75 54.173-9.674 48.674 33.655z" fill="#72a64e"/><path d="m328 48-24.93 62.81-31.226-6.997 32.737-61.061z" fill="#6a9c46"/><path d="m281.161 37.505-9.317 66.308 31.226 6.997 1.511-68.058z" fill="#79ad54"/><path d="m318.07 135.52a36.881 36.881 0 0 1 -1.66 10.94l-40.42 130.53a25.995 25.995 0 0 1 -50.57-11.33l5.6-39.58 2.25-15.89 3.38-23.87 2.25-15.88 3.37-23.86 2.25-15.88.05-.34a36.933 36.933 0 0 1 73.5 5.16z" fill="#f07800"/><path d="m280.42 138.53-3.41 15.63-34.74-7.58 2.25-15.88z" fill="#e66b00"/><path d="m238.9 170.44 32.76 7.12-3.39 15.63-31.62-6.87z" fill="#e66b00"/><path d="m262.91 216.59-3.38 15.64-28.51-6.15 2.25-15.89z" fill="#e66b00"/><path d="m88.156 264c-.095-2.654-.156-5.319-.156-8 0-106.039 75.216-192 168-192s168 85.961 168 192c0 2.681-.061 5.346-.156 8h40.019c.081-2.657.137-5.321.137-8 0-128.13-93.125-232-208-232s-208 103.87-208 232c0 2.679.056 5.343.136 8z" fill="#8c5237"/><path d="m252.47 153.52a34.408 34.408 0 0 0 -9.814-18.031 20.35 20.35 0 0 1 -4.508-22.576 34.578 34.578 0 0 0 -31.619-48.224h-.069a8.8 8.8 0 0 1 -8.943-8.159 34.572 34.572 0 1 0 -67.28 13.09 9.023 9.023 0 0 1 -5 11.3l-.075.032a34.587 34.587 0 0 0 -10.675 56.677 20.347 20.347 0 0 1 4.513 22.576 34.568 34.568 0 0 0 10.341 40.775 21.077 21.077 0 0 1 7.257 22.659 34.4 34.4 0 0 0 -.769 16.657c5.415 27.123 77.27 69.172 77.27 69.172s50.194-66.443 44.778-93.566a34.4 34.4 0 0 0 -7.106-15.083 21.079 21.079 0 0 1 -2-23.71 34.42 34.42 0 0 0 3.699-23.589z" fill="#79ad54"/><path d="m424 82.622-49.399 63.433-27.078-17.052 56.168-59.17z" fill="#6a9c46"/><path d="m383.382 57.044-35.859 71.959 27.078 17.052 29.09-76.222z" fill="#79ad54"/><path d="m375.23 184.11-81.8 109.45a26 26 0 0 1 -43.86-27.61l18.83-35.98 7.45-14.24 11.14-21.29 7.45-14.23 11.15-21.31 7.34-14.02c.04-.07.07-.14.11-.21a36.952 36.952 0 0 1 36.35-19.42c.5.06 1 .12 1.5.2a36.677 36.677 0 0 1 14.43 5.31h.01a36.736 36.736 0 0 1 11.02 10.71c.29.42.56.85.82 1.28a36.927 36.927 0 0 1 -1.94 41.36z" fill="#f98500"/><path d="m344.08 164.65-8.66 13.45-29.83-19.2 7.34-14.02c.04-.07.07-.14.11-.21z" fill="#eb7206"/><path d="m322.77 198.51-8.68 13.44-27.1-17.51 7.45-14.23z" fill="#eb7206"/><path d="m301.47 232.36-8.71 13.42-24.36-15.81 7.45-14.24z" fill="#eb7206"/><path d="m376 184h40a16 16 0 0 1 16 16v8a0 0 0 0 1 0 0h-72a0 0 0 0 1 0 0v-8a16 16 0 0 1 16-16z" fill="#79ad54"/><path d="m433.765 155.556v-19.556c-33.265 0-57.765 26.266-57.765 58.667v37.333h50.639v-27.556l-5.933-11.455c-12.706-16.989-7.706-37.433 13.059-37.433z" fill="#79ad54"/><path d="m352.392 312a20.062 20.062 0 0 1 -19.98-16.341l-12.026-69.659c-2.831-16.4 10.268-31.329 27.49-31.329 15.391 0 27.868 12.046 27.868 26.905v67.883c0 12.447-10.455 22.541-23.352 22.541z" fill="#fcac1f"/><path d="m439.608 312c-12.9 0-23.352-10.094-23.352-22.545v-67.883c0-14.859 12.477-26.9 27.868-26.9 17.222 0 30.321 14.929 27.49 31.329l-12.026 69.663a20.062 20.062 0 0 1 -19.98 16.336z" fill="#fcac1f"/><path d="m393 194.667h6a27.383 27.383 0 0 1 27.383 27.383v60.1a29.854 29.854 0 0 1 -29.853 29.85h-1.06a29.854 29.854 0 0 1 -29.854-29.854v-60.1a27.383 27.383 0 0 1 27.384-27.379z" fill="#ffb531"/><path d="m240.127 204.064-13.311-8.878-21.841 32.747-7.755-38.836 30.721-46.059-13.31-8.879-21.841 32.746-6.4-32.053 25.295-37.923-13.311-8.879-16.415 24.61-9.757-48.865-15.689 3.133 9.758 48.87-24.607-16.412-8.879 13.31 37.915 25.29 6.401 32.058-32.741-21.838-8.879 13.311 46.05 30.714 7.755 38.84-32.741-21.839-8.879 13.311 46.05 30.715 11.536 57.776 15.689-3.133-11.535-57.776z" fill="#89ba66"/><path d="m464 304-2.09 16-1.04 8-2.09 16-3.13 24-2.08 16-3.13 24-2.09 16-1.08 8.28a63.995 63.995 0 0 1 -63.46 55.72h-255.62a63.939 63.939 0 0 1 -63.46-55.72l-1.08-8.28-2.09-16-3.13-24-2.08-16-3.13-24-2.09-16-1.04-8-2.09-16z" fill="#92563a"/><path d="m464 304-2.09 16-1.04 8-2.09 16-3.13 24-2.08 16-3.13 24-2.09 16-1.08 8.28a63.995 63.995 0 0 1 -63.46 55.72h-255.62a63.792 63.792 0 0 1 -40.33-14.32c108.36-16.65 228.18-65.61 315.38-169.68z" fill="#8c5237"/><path d="m488 284a20.007 20.007 0 0 1 -20 20h-424a20 20 0 0 1 0-40h424a19.994 19.994 0 0 1 20 20z" fill="#a8684a"/><g fill="#78462f"><path d="m224 328h64v16h-64z"/><path d="m128 328h64v16h-64z"/><path d="m96 328v16h-42.78l-2.09-16z"/><path d="m320 328h64v16h-64z"/><path d="m460.87 328-2.09 16h-42.78v-16z"/><path d="m224 368h64v16h-64z"/><path d="m128 368h64v16h-64z"/><path d="m96 368v16h-37.57l-2.08-16z"/><path d="m320 368h64v16h-64z"/><path d="m455.65 368-2.08 16h-37.57v-16z"/><path d="m224 408h64v16h-64z"/><path d="m128 408h64v16h-64z"/><path d="m96 408v16h-32.35l-2.09-16z"/><path d="m320 408h64v16h-64z"/><path d="m450.44 408h-34.44v16h32.35z"/><path d="m224 448h64v16h-64z"/><path d="m128 448h64v16h-64z"/><path d="m96 448v16h-17.77a64.118 64.118 0 0 1 -9.38-16z"/><path d="m320 448h64v16h-64z"/><path d="m443.15 448a64.118 64.118 0 0 1 -9.38 16h-17.77v-16z"/></g><path d="m464 304-2.09 16h-411.82l-2.09-16z" fill="#8c5237"/></g></svg>