<?xml version="1.0" encoding="iso-8859-1"?>
<!-- Generator: Adobe Illustrator 19.0.0, SVG Export Plug-In . SVG Version: 6.00 Build 0)  -->
<svg version="1.1" id="Capa_1" xmlns="http://www.w3.org/2000/svg" xmlns:xlink="http://www.w3.org/1999/xlink" x="0px" y="0px"
	 viewBox="0 0 511.996 511.996" style="enable-background:new 0 0 511.996 511.996;" xml:space="preserve">
<path style="fill:#F0DBC2;" d="M395.205,407.586H168.984c-19.22,0-34.803-15.583-34.803-34.803V176.283
	c0-8.1,1.888-16.097,5.508-23.344l46.697-93.386H447.41l-46.697,93.386c-3.62,7.248-5.508,15.244-5.508,23.344V407.586z"/>
<path style="fill:#E6CCAF;" d="M395.205,407.586h78.307c19.22,0,34.803-15.583,34.803-34.803V178.076
	c0-9.24-2.454-18.315-7.109-26.303l-53.797-92.22l-46.697,93.386c-3.62,7.248-5.508,15.244-5.508,23.344V407.586z"/>
<path style="fill:#D4B99B;" d="M430.009,59.553h43.504c14.417,0,26.102-11.685,26.102-26.102l0,0
	c0-14.417-11.685-26.102-26.102-26.102h-43.504V59.553z"/>
<path style="fill:#F0DBC2;" d="M447.41,33.451c0-14.417,11.685-26.102,26.102-26.102H212.488c-14.417,0-26.102,11.685-26.102,26.102
	l0,0v26.102H447.41V33.451z"/>
<g>
	<path style="fill:#E6CCAF;" d="M473.513,59.614L473.513,59.614c-0.113-3.654,2.088-6.978,5.499-8.292
		c9.127-3.002,14.104-12.834,11.102-21.961c-2.697-8.214-11.024-13.208-19.542-11.711c-8.57,1.749-14.661,9.388-14.461,18.133
		v23.771c0,4.803-3.898,8.701-8.701,8.701l0,0c-4.803,0-8.701-3.898-8.701-8.701V36.357c-0.313-18.28,13.182-33.872,31.323-36.178
		c19.124-1.932,36.195,12.007,38.118,31.132c1.636,16.21-8.196,31.393-23.658,36.526c-4.498,1.366-9.249-1.175-10.615-5.673
		C473.635,61.337,473.504,60.476,473.513,59.614z"/>
	<path style="fill:#E6CCAF;" d="M195.086,50.852H447.41c4.803,0,8.701,3.898,8.701,8.701l0,0c0,4.803-3.898,8.701-8.701,8.701
		H195.086c-4.803,0-8.701-3.898-8.701-8.701l0,0C186.385,54.742,190.283,50.852,195.086,50.852z"/>
</g>
<path style="fill:#F2B9B8;" d="M56.691,511.996h120.176c32.976-20.638,53.014-56.799,53.023-95.709v-60.906H3.668v60.906
	C3.677,455.188,23.715,491.349,56.691,511.996z"/>
<path style="fill:#F5EADF;" d="M21.07,355.381l84.006-76.367c6.639-6.03,16.766-6.03,23.405,0l84.006,76.367H21.07z"/>
<path style="fill:#F09E3E;" d="M229.89,190.066L229.89,190.066c-9.614,0-17.402-7.787-17.402-17.402v-52.205h17.402V190.066z"/>
<g>
	<path style="fill:#D68033;" d="M316.898,190.066L316.898,190.066v-69.607H334.3v52.205
		C334.3,182.27,326.512,190.066,316.898,190.066z"/>
	<rect x="264.693" y="311.877" style="fill:#D68033;" width="17.402" height="43.504"/>
</g>
<path style="fill:#F09E3E;" d="M221.189,155.262h17.402c19.22,0,34.803,15.583,34.803,34.803v17.402l0,0h-17.402
	c-19.22,0-34.803-15.583-34.803-34.803V155.262L221.189,155.262z"/>
<path style="fill:#D68033;" d="M221.189,207.467h17.402c19.22,0,34.803,15.583,34.803,34.803v17.402l0,0h-17.402
	c-19.22,0-34.803-15.583-34.803-34.803V207.467L221.189,207.467z"/>
<path style="fill:#F09E3E;" d="M221.189,259.672h17.402c19.22,0,34.803,15.583,34.803,34.803v17.402l0,0h-17.402
	c-19.22,0-34.803-15.583-34.803-34.803V259.672L221.189,259.672z"/>
<path style="fill:#D68033;" d="M290.795,207.467h-17.402l0,0v-17.402c0-19.22,15.583-34.803,34.803-34.803h17.402l0,0v17.402
	C325.599,191.884,310.024,207.467,290.795,207.467z"/>
<path style="fill:#F09E3E;" d="M290.795,259.672h-17.402l0,0v-17.402c0-19.22,15.583-34.803,34.803-34.803h17.402l0,0v17.402
	C325.599,244.089,310.024,259.672,290.795,259.672z"/>
<path style="fill:#D68033;" d="M290.795,311.877h-17.402l0,0v-17.402c0-19.22,15.583-34.803,34.803-34.803h17.402l0,0v17.402
	C325.599,296.294,310.024,311.877,290.795,311.877z"/>
<path style="fill:#F09E3E;" d="M273.394,172.664L273.394,172.664c-19.22-12.816-24.415-38.797-11.59-58.017
	c3.063-4.594,7.004-8.527,11.59-11.589l0,0c19.22,12.816,24.415,38.797,11.589,58.017
	C281.929,165.66,277.988,169.601,273.394,172.664z"/>
<path style="fill:#F2AEAC;" d="M205.788,355.381C183.123,455.98,108.809,494.02,51.018,508.176c1.853,1.331,3.741,2.602,5.673,3.82
	h120.176c32.976-20.638,53.014-56.799,53.023-95.709v-60.906L205.788,355.381L205.788,355.381z"/>
<g>
</g>
<g>
</g>
<g>
</g>
<g>
</g>
<g>
</g>
<g>
</g>
<g>
</g>
<g>
</g>
<g>
</g>
<g>
</g>
<g>
</g>
<g>
</g>
<g>
</g>
<g>
</g>
<g>
</g>
</svg>
