<svg height="512" viewBox="0 0 512 512" width="512" xmlns="http://www.w3.org/2000/svg"><g id="Flat"><path d="m376 307.13v75.9a40.9722 40.9722 0 0 1 -40.97 40.97h-270.06a40.97228 40.97228 0 0 1 -40.97-40.97v-9.74a799.92513 799.92513 0 0 1 71.71-331.04l8.29-18.25h193.45a39.99655 39.99655 0 0 1 38.59 29.48l11.77 43.16a799.96461 799.96461 0 0 1 28.19 210.49z" fill="#eedc9a"/><path d="m347.81 96.64-11.77-43.16a40.0032 40.0032 0 0 0 -32.04-28.941v-.539h-72v64h36.61786a799.93459 799.93459 0 0 0 -52.61786 285.29v9.74a40.97056 40.97056 0 0 0 40.97 40.97h78.06a40.97056 40.97056 0 0 0 40.97-40.97v-75.9a799.96461 799.96461 0 0 0 -28.19-210.49z" fill="#e88604"/><path d="m256 96a24 24 0 0 0 24 24h-216a24 24 0 0 1 -24-24v-32a40 40 0 0 1 40-40h216a40 40 0 0 0 -40 40z" fill="#ece9c0"/><path d="m256 72h48a0 0 0 0 1 0 0v24a24 24 0 0 1 -24 24 24 24 0 0 1 -24-24v-24a0 0 0 0 1 0 0z" fill="#eebe33"/><path d="m104 280a127.93082 127.93082 0 0 0 8.6987 46.36807l27.4663 70.62763a80 80 0 0 0 74.56037 51.0043h162.54926a80 80 0 0 0 74.56037-51.0043l27.46629-70.62761a127.93082 127.93082 0 0 0 8.69871-46.36809z" fill="#379ec3"/><path d="m488 280c0 14.40991-18.67 27.55005-49.35 37.48-35.14 11.37-86.03 18.52-142.65 18.52s-107.51-7.15-142.65-18.52c-30.68-9.92995-49.35-23.07009-49.35-37.48 0-30.93 85.96-56 192-56s192 25.07 192 56z" fill="#8acce7"/><path d="m440 312a12.21446 12.21446 0 0 1 -1.35 5.48c-35.14 11.37-86.03 18.52-142.65 18.52s-107.51-7.15-142.65-18.52a12.21446 12.21446 0 0 1 -1.35-5.48c0-22.09009 64.47-40 144-40s144 17.90991 144 40z" fill="#eedc9a"/><path d="m402.564 199.20508-2.61279-23.51319-4.97583.55274-.35766-3.21924-4.97541.55273-.3576-3.21923-12.57782 1.39727-2.4422-10.99054a162.29983 162.29983 0 0 0 -110.40479 86.20167l-23.01513 46.03027 14.31054 7.15527 23.01514-46.03027a146.281 146.281 0 0 1 89.418-75.09107c-26.80243 18.88935-51.33783 47.95374-68.47754 81.47046l-23.55671 45.74414 14.22461 7.3252 23.56689-45.76416c16.42426-32.11737 39.93946-59.72186 65.39478-77.045-5.305 10.02912-11.24079 21.10914-17.48169 32.75745q-13.05541 24.36621-26.896 50.51758l-18.13818 34.21582 14.13672 7.49414 18.1499-34.23877q13.76367-26.16723 26.85059-50.43262c4.14373-7.73364 8.14868-15.20959 11.93432-22.31244a146.15543 146.15543 0 0 1 -17.67993 78.80951l-11.23437 20.5962 14.04589 7.6621 11.23438-20.59667a162.18024 162.18024 0 0 0 18.90189-96.02935z" fill="#c4d4e0"/><path d="m364.26106 163.93644 63.67563-104.19644a23.323 23.323 0 0 1 31.90069-7.83753 23.323 23.323 0 0 1 7.90152 32.16111l-63.67559 104.19642a23.323 23.323 0 0 1 -31.90069 7.83753 23.323 23.323 0 0 1 -7.90156-32.16109z" fill="#a6b2bc"/><path d="m328 424 64.09859-5.82714a21.91712 21.91712 0 0 1 23.90141 21.82714 21.91712 21.91712 0 0 1 -23.90141 21.82712l-64.09859-5.82712z" fill="#966342"/><rect fill="#723024" height="96" rx="48" width="328" x="56" y="392"/><circle cx="104" cy="440" fill="#984e3c" r="48"/><path d="m96.06572 457.44857-48.16431 4.37857a21.91712 21.91712 0 0 1 -23.90141-21.82714 21.91712 21.91712 0 0 1 23.90141-21.82712l48.16431 4.37857a17.5205 17.5205 0 0 1 15.93428 17.44855 17.5205 17.5205 0 0 1 -15.93428 17.44857z" fill="#ad7d4d"/></g></svg>