<svg id="Flat" height="512" viewBox="0 0 512 512" width="512" xmlns="http://www.w3.org/2000/svg"><path d="m89 24h152a24 24 0 0 1 24 24 24 24 0 0 1 -24 24h-152a0 0 0 0 1 0 0v-48a0 0 0 0 1 0 0z" fill="#eb423f"/><path d="m57 32h32v32h-32z" fill="#c7312e"/><path d="m177 72h48v48h-48z" fill="#e9eef2"/><path d="m137 96v8a48 48 0 0 1 -48 48 16 16 0 0 1 -16-16 16 16 0 0 1 16-16 16 16 0 0 0 16-16v-32h32z" fill="#c7312e"/><path d="m161 120h80v64h-80z" fill="#c7312e"/><path d="m145 200v8a32 32 0 0 1 -32 32h-16a32 32 0 0 0 -32 32v184a32 32 0 0 0 32 32h128a32 32 0 0 0 32-32v-256a32 32 0 0 0 -32-32h-48a32 32 0 0 0 -32 32z" fill="#eb423f"/><path d="m169 200a8 8 0 0 1 -8 8h-16v-8a32 32 0 0 1 1.01-8h14.99a8 8 0 0 1 8 8z" fill="#c7312e"/><path d="m169 232a8 8 0 0 1 -8 8h-40a7.954 7.954 0 0 1 -2.64-.45 32.02 32.02 0 0 0 22.36-15.55h20.28a8 8 0 0 1 8 8z" fill="#c7312e"/><path d="m193 216v40a16 16 0 0 1 -16 16h-64a16 16 0 0 0 -16 16v152a16 16 0 0 0 16 16h96a16 16 0 0 0 16-16v-224a16 16 0 0 0 -16-16 16 16 0 0 0 -16 16z" fill="#e9eef2"/><path d="m393 56h-48v-24.865l18.94-6.314a16 16 0 0 1 10.12 0l18.94 6.314z" fill="#d46109"/><path d="m345 56h48v40h-48z" fill="#ed8424"/><path d="m409 488a32 32 0 0 0 32-32v-184c0-8-8-16-8-24s8-15.75 8-24c0-8-8-16-8-24s8-15.75 8-24v-16.02h-.04a71.98 71.98 0 1 0 -143.96 0v16.02c0 8.25 8 16 8 24s-8 16-8 24c0 8.25 8 16 8 24s-8 16-8 24v184a32 32 0 0 0 32 32z" fill="#ff8e26"/><path d="m369 120a40 40 0 0 1 40 40v8a16 16 0 0 1 -16 16h-48a16 16 0 0 1 -16-16v-8a40 40 0 0 1 40-40z" fill="#ffd33a"/><path d="m401 464a8 8 0 0 1 -8-8v-160a8 8 0 0 1 16 0v160a8 8 0 0 1 -8 8z" fill="#d46109"/><path d="m369 464a8 8 0 0 1 -8-8v-160a8 8 0 0 1 16 0v160a8 8 0 0 1 -8 8z" fill="#d46109"/><path d="m337 464a8 8 0 0 1 -8-8v-160a8 8 0 0 1 16 0v160a8 8 0 0 1 -8 8z" fill="#d46109"/><path d="m160 424h288v64h-288z" fill="#dadcde"/><path d="m168 376h272a16 16 0 0 1 16 16v32a0 0 0 0 1 0 0h-304a0 0 0 0 1 0 0v-32a16 16 0 0 1 16-16z" fill="#7e8589"/><g fill="#c3c6c7"><path d="m192 456a8 8 0 0 0 -8 8v24h16v-24a8 8 0 0 0 -8-8z"/><path d="m224 456a8 8 0 0 0 -8 8v24h16v-24a8 8 0 0 0 -8-8z"/><path d="m256 456a8 8 0 0 0 -8 8v24h16v-24a8 8 0 0 0 -8-8z"/><path d="m288 456a8 8 0 0 0 -8 8v24h16v-24a8 8 0 0 0 -8-8z"/><path d="m320 456a8 8 0 0 0 -8 8v24h16v-24a8 8 0 0 0 -8-8z"/><path d="m352 456a8 8 0 0 0 -8 8v24h16v-24a8 8 0 0 0 -8-8z"/><path d="m384 456a8 8 0 0 0 -8 8v24h16v-24a8 8 0 0 0 -8-8z"/><path d="m416 456a8 8 0 0 0 -8 8v24h16v-24a8 8 0 0 0 -8-8z"/></g></svg>