<svg height="512pt" viewBox="0 -69 512.00056 512" width="512pt" xmlns="http://www.w3.org/2000/svg"><path d="m511.992188 141.082031h-511.992188v76.675781c0 61.105469 40.054688 117.410157 101.683594 135.316407 100.957031 29.332031 207.675781 29.332031 308.628906 0 58.898438-17.109375 98.074219-69.28125 101.441406-127.203125zm0 0" fill="#b2785b"/><path d="m0 141.082031v76.675781c0 61.105469 40.054688 117.414063 101.683594 135.316407 72.300781 21.007812 147.554687 26.96875 221.53125 17.886719 7.085937-36.351563-7.195313-75.835938-7.195313-75.835938v-154.042969zm0 0" fill="#935b45"/><path d="m0 141.082031c0-113.894531 104.777344-111.835937 180.351562-93.097656 58.9375 14.609375 101.808594-27.972656 151.296876-42.347656 74.769531-21.726563 152.992187 21.277343 174.714843 96.050781 21.726563 74.769531-21.28125 152.992188-96.050781 174.714844-100.953125 29.328125-207.671875 29.328125-308.625 0-61.632812-17.90625-101.6875-74.214844-101.6875-135.320313zm0 0" fill="#fce6d4"/><path d="m180.367188 47.988281c-75.574219-18.738281-180.367188-20.792969-180.367188 93.105469 0 61.105469 40.054688 117.410156 101.683594 135.316406 69.957031 20.324219 142.679687 26.554688 214.335937 18.710938-54.734375-87.230469-152.609375-56.816406-180.863281-137.664063-31.488281-90.101562 45.210938-109.46875 45.210938-109.46875zm0 0" fill="#efd4bf"/><path d="m256 256.105469c-165.152344 0-213.703125-71.441407-213.703125-115.023438 0-8.648437 0-63.53125 66.308594-60.484375 17.992187.828125 84.570312 12.6875 96.109375 12.6875 39.066406 0 70.769531-15.78125 98.742187-29.710937 14.148438-7.046875 46.550781-21.28125 67.589844-21.28125 43.582031 0 82.523437 29.277343 94.703125 71.191406 7.355469 25.316406 4.410156 51.976563-8.289062 75.078125-12.699219 23.097656-68.65625 67.542969-201.460938 67.542969zm0 0" fill="#f2b4b1"/><path d="m416.988281 139.878906c0 23.207032-18.8125 42.019532-42.019531 42.019532-23.203125 0-42.015625-18.8125-42.015625-42.019532 0-23.203125 18.8125-42.015625 42.015625-42.015625 23.207031 0 42.019531 18.8125 42.019531 42.015625zm0 0" fill="#fff"/><path d="m135.15625 157.445312c-11.6875-33.441406-8.46875-57.128906.195312-73.710937-11.445312-1.632813-21.3125-2.886719-26.746093-3.136719-66.308594-3.046875-66.308594 51.835938-66.308594 60.484375 0 43.582031 48.550781 115.023438 213.703125 115.023438 8.175781 0 16.046875-.167969 23.644531-.492188-54.109375-40.078125-121.78125-33.1875-144.488281-98.167969zm0 0" fill="#eaa2a2"/></svg>