<svg id="Capa_1" enable-background="new 0 0 497 497" height="512" viewBox="0 0 497 497" width="512" xmlns="http://www.w3.org/2000/svg"><g><g><path d="m128.001 198.8h-78.583c-4.418 0-8 3.582-8 8v25.133h-10.917v234.567h97.5z" fill="#abc4d6"/><path d="m472.15 33.133v-24.85c0-4.575-3.709-8.283-8.283-8.283h-347.899c-4.575 0-8.283 3.709-8.283 8.283v421.795c0 18.579-15.204 34.137-33.779 33.781-18.001-.344-32.487-15.044-32.487-33.127v-198.8h-24.135c-4.97 0-9 4.029-9 9v189.799c0 36.598 29.669 66.267 66.267 66.267l356.146-7.802c18.299 0 40.935-7.031 40.935-25.33z" fill="#bdd3dd"/><path d="m74.551 496.999c36.598 0 66.267-29.669 66.267-66.267v-389.315c0-4.575 3.708-8.283 8.283-8.283h331.331c4.575 0 8.283 3.708 8.283 8.283v422.451c0 18.298-14.834 33.132-33.132 33.132z" fill="#f9f5f3"/><path d="m480.432 33.133h-23c4.575 0 8.283 3.708 8.283 8.283v422.451c0 18.299-14.834 33.133-33.132 33.133h23c18.299 0 33.132-14.834 33.132-33.133v-422.45c.001-4.575-3.708-8.284-8.283-8.284z" fill="#f9eae0"/></g><path d="m298.484 347.899h-116.533c-4.418 0-8-3.582-8-8v-83.4c0-4.418 3.582-8 8-8h116.533c4.418 0 8 3.582 8 8v83.4c0 4.419-3.582 8-8 8z" fill="#a0c8ff"/><g><path d="m455.584 256h-115.967c-4.143 0-7.5-3.358-7.5-7.5s3.357-7.5 7.5-7.5h115.967c4.143 0 7.5 3.358 7.5 7.5s-3.358 7.5-7.5 7.5z" fill="#868eaf"/></g><g><g><path d="m455.584 289.133h-49.7c-4.143 0-7.5-3.358-7.5-7.5s3.357-7.5 7.5-7.5h49.7c4.143 0 7.5 3.358 7.5 7.5s-3.358 7.5-7.5 7.5z" fill="#89dd8e"/></g></g><g><path d="m455.584 322.266h-115.967c-4.143 0-7.5-3.358-7.5-7.5s3.357-7.5 7.5-7.5h115.967c4.143 0 7.5 3.358 7.5 7.5s-3.358 7.5-7.5 7.5z" fill="#868eaf"/></g><g><path d="m455.584 355.4h-115.967c-4.143 0-7.5-3.358-7.5-7.5s3.357-7.5 7.5-7.5h115.967c4.143 0 7.5 3.358 7.5 7.5s-3.358 7.5-7.5 7.5z" fill="#868eaf"/></g><g><path d="m455.584 388.533h-281.633c-4.143 0-7.5-3.358-7.5-7.5s3.357-7.5 7.5-7.5h281.633c4.143 0 7.5 3.358 7.5 7.5s-3.358 7.5-7.5 7.5z" fill="#868eaf"/></g><g><path d="m455.584 421.666h-281.633c-4.143 0-7.5-3.358-7.5-7.5s3.357-7.5 7.5-7.5h281.633c4.143 0 7.5 3.358 7.5 7.5s-3.358 7.5-7.5 7.5z" fill="#868eaf"/></g><g><path d="m455.584 454.799h-281.633c-4.143 0-7.5-3.358-7.5-7.5s3.357-7.5 7.5-7.5h281.633c4.143 0 7.5 3.358 7.5 7.5s-3.358 7.5-7.5 7.5z" fill="#868eaf"/></g><g><g><g><path d="m215.365 156.866c-2.89 0-5.607-1.62-6.943-4.293l-18.422-36.844v33.371c0 4.289-3.476 7.766-7.766 7.766s-7.766-3.476-7.766-7.766v-66.267c0-3.602 2.476-6.73 5.981-7.558 3.51-.829 7.119.865 8.73 4.085l18.422 36.844v-33.371c0-4.289 3.476-7.766 7.766-7.766 4.289 0 7.766 3.476 7.766 7.766v66.267c0 3.602-2.476 6.73-5.981 7.558-.597.141-1.195.208-1.787.208z" fill="#868eaf"/></g><path d="m281.634 123.732c4.289 0 7.766-3.476 7.766-7.766s-3.476-7.766-7.766-7.766h-25.368v-17.601h25.368c4.289 0 7.766-3.476 7.766-7.766s-3.476-7.766-7.766-7.766h-33.134c-4.289 0-7.766 3.476-7.766 7.766v66.267c0 4.289 3.476 7.766 7.766 7.766h33.133c4.289 0 7.766-3.476 7.766-7.766 0-4.289-3.476-7.766-7.766-7.766h-25.368v-17.602z" fill="#868eaf"/><g><path d="m364.466 156.865c-3.461 0-6.512-2.294-7.465-5.632l-9.1-31.849-9.1 31.849c-.953 3.338-4.004 5.632-7.465 5.632-.043 0-.087 0-.13-.001-3.515-.059-6.552-2.471-7.405-5.881l-16.567-66.267c-1.039-4.161 1.489-8.377 5.65-9.418 4.158-1.036 8.377 1.49 9.418 5.65l9.533 38.132 8.6-30.099c.953-3.334 3.999-5.632 7.466-5.632s6.514 2.298 7.466 5.632l8.6 30.099 9.533-38.132c1.042-4.16 5.257-6.687 9.418-5.65 4.161 1.04 6.69 5.257 5.65 9.418l-16.567 66.267c-.852 3.41-3.89 5.822-7.405 5.881-.043.001-.086.001-.13.001z" fill="#868eaf"/></g><g><path d="m430.734 156.865c-13.417 0-24.332-10.915-24.332-24.332 0-4.289 3.476-7.766 7.766-7.766 4.289 0 7.766 3.476 7.766 7.766 0 4.853 3.948 8.801 8.801 8.801s8.801-3.949 8.801-8.801-3.949-8.801-8.801-8.801c-13.417 0-24.332-10.915-24.332-24.332s10.915-24.332 24.332-24.332 24.332 10.915 24.332 24.332c0 4.289-3.476 7.766-7.766 7.766-4.289 0-7.766-3.476-7.766-7.766 0-4.852-3.949-8.801-8.801-8.801s-8.801 3.949-8.801 8.801c0 4.853 3.948 8.801 8.801 8.801 13.417 0 24.332 10.915 24.332 24.332s-10.915 24.332-24.332 24.332z" fill="#868eaf"/></g></g><path d="m447.584 215.366h-265.633c-4.418 0-8-3.582-8-8v-17.133c0-4.418 3.582-8 8-8h265.633c4.418 0 8 3.582 8 8v17.133c0 4.419-3.582 8-8 8z" fill="#fa8ebb"/><path d="m447.301 182.233h-23.815c4.575 0 8.283 3.709 8.283 8.283v16.567c0 4.575-3.708 8.283-8.283 8.283h23.815c4.575 0 8.283-3.709 8.283-8.283v-16.567c0-4.574-3.709-8.283-8.283-8.283z" fill="#f57fb0"/></g><path d="m298.201 248.5h-23.815c4.575 0 8.283 3.709 8.283 8.283v82.833c0 4.575-3.708 8.283-8.283 8.283h23.815c4.575 0 8.283-3.709 8.283-8.283v-82.833c0-4.575-3.709-8.283-8.283-8.283z" fill="#91b2fa"/></g></svg>