<svg id="Capa_1" enable-background="new 0 0 512 512" height="512" viewBox="0 0 512 512" width="512" xmlns="http://www.w3.org/2000/svg"><g><g><g><path d="m89.037 277.651c-4.282 0-7.753-3.471-7.753-7.753v-28.766c0-4.282 3.471-7.753 7.753-7.753s7.753 3.471 7.753 7.753v28.766c0 4.282-3.471 7.753-7.753 7.753z" fill="#665e66"/></g><g><path d="m118.938 277.651c-4.282 0-7.753-3.471-7.753-7.753v-28.766c0-4.282 3.471-7.753 7.753-7.753s7.753 3.471 7.753 7.753v28.766c0 4.282-3.47 7.753-7.753 7.753z" fill="#665e66"/></g></g><path d="m338.445 287.91h105.524v71.022h-105.524z" fill="#756e78"/><path d="m421.495 308.227h22.474v30.388h-22.474z" fill="#665e66"/><path d="m487.581 441.049h-464.942c-4.763 0-8.625-3.861-8.625-8.625v-14.996l27.025-20.675h422.814l32.353 20.675v14.996c-.001 4.764-3.862 8.625-8.625 8.625z" fill="#756e78"/><path d="m472.477 417.428v14.996c0 4.763-3.861 8.625-8.625 8.625h23.728c4.763 0 8.625-3.861 8.625-8.625v-14.996z" fill="#665e66"/><path d="m303.679 251.47h-225.039c-7.804 0-14.131-6.327-14.131-14.131v-68.7h239.17z" fill="#e7ecf1"/><path d="m64.509 195.884 147.271 55.586h91.899v-82.831h-239.17z" fill="#dae4ea"/><path d="m92.325 219.136h-27.816v-50.497h34.26v44.052c0 3.559-2.885 6.445-6.444 6.445z" fill="#b9c1cb"/><path d="m98.769 208.815v-40.176h-34.26v27.245z" fill="#a0aab7"/><g><path d="m128.931 235.71h-9.992c-4.282 0-7.753-3.471-7.753-7.753s3.471-7.753 7.753-7.753h9.992c4.282 0 7.753 3.471 7.753 7.753s-3.471 7.753-7.753 7.753z" fill="#b9c1cb"/></g><path d="m506.592 417.428h-502.965c-2.578 0-4.331-2.617-3.351-5.001l20.747-50.451c5.813-14.135 19.584-23.362 34.867-23.362h398.44c15.283 0 29.054 9.227 34.867 23.362l20.747 50.451c.98 2.385-.773 5.001-3.352 5.001z" fill="#dd636e"/><path d="m489.197 361.976c-5.812-14.135-19.584-23.362-34.867-23.362h-26.325c15.283 0 29.054 9.227 34.867 23.362l22.803 55.452h20.917c2.578 0 4.331-2.617 3.351-5.001z" fill="#da4a54"/><path d="m497.195 308.227h-176.754c-6.749 0-12.221-5.471-12.221-12.221v-5.691c0-12.404-7.68-23.511-19.285-27.892l-279.259-105.404c-5.5-2.076-7.179-9.04-3.23-13.395l21.475-23.681c42.123-46.449 108.787-61.615 166.859-37.96l241.073 98.197c46.043 18.756 76.147 63.524 76.147 113.242 0 8.176-6.628 14.805-14.805 14.805z" fill="#dd636e"/><path d="m435.852 180.181-241.073-98.197c-52.36-21.328-111.697-11.084-153.741 25.181 39.701-24.132 89.286-28.852 133.827-10.708l241.073 98.197c46.044 18.755 76.148 63.523 76.148 113.241 0 .112-.014.22-.017.332h5.125c8.176 0 14.805-6.628 14.805-14.805.001-49.718-30.103-94.486-76.147-113.241z" fill="#da4a54"/><g><path d="m182.369 191.208-78.288-29.549c-4.241-1.601-6.382-6.337-4.781-10.578l3.694-9.787c1.601-4.241 6.337-6.381 10.578-4.781l78.288 29.549c4.241 1.601 6.382 6.337 4.781 10.578l-3.694 9.787c-1.601 4.242-6.337 6.382-10.578 4.781z" fill="#756e78"/></g><g><path d="m406.771 283.221h-31.128c-4.282 0-7.753-3.471-7.753-7.753s3.471-7.753 7.753-7.753h31.128c4.282 0 7.753 3.471 7.753 7.753s-3.471 7.753-7.753 7.753z" fill="#e7ecf1"/></g><g><path d="m406.771 374.064h-31.128c-4.282 0-7.753-3.471-7.753-7.753s3.471-7.753 7.753-7.753h31.128c4.282 0 7.753 3.471 7.753 7.753s-3.471 7.753-7.753 7.753z" fill="#e7ecf1"/></g><path d="m143.466 338.614h-78.957v-14.099c0-6.235 5.054-11.289 11.29-11.289h56.378c6.235 0 11.29 5.054 11.29 11.289v14.099z" fill="#e7ecf1"/><path d="m132.177 313.225h-22.349c6.235 0 11.289 5.054 11.289 11.29v14.099h22.349v-14.099c0-6.235-5.054-11.29-11.289-11.29z" fill="#dae4ea"/></g></svg>