<svg id="Capa_1" enable-background="new 0 0 512 512" height="512" viewBox="0 0 512 512" width="512" xmlns="http://www.w3.org/2000/svg"><path d="m48.324 345.113c-17.246-17.274-17.902-45.977-17.436-57.11.112-2.678 2.253-4.819 4.931-4.932 11.121-.466 39.767.195 57.008 17.465 21.743 21.779 17.117 61.722 17.117 61.722s-39.878 4.633-61.62-17.145z" fill="#98db7c"/><path d="m65.372 327.701c-12.477-12.498-16.265-30.968-17.232-44.448-5.009-.346-9.31-.304-12.323-.179-2.677.111-4.817 2.255-4.929 4.931-.466 11.136.192 39.835 17.436 57.107 21.743 21.779 61.62 17.145 61.62 17.145s.834-7.264.116-17.273c-13.484-.932-32.113-4.687-44.688-17.283z" fill="#82d361"/><path d="m81.676 407.305c-1.644 0-3.3-.521-4.706-1.599-3.393-2.602-4.033-7.462-1.432-10.855l70.383-91.765c1.174-1.638 2.411-3.251 3.716-4.836 2.686-3.262 7.49-3.765 10.793-1.141 3.307 2.628 3.897 7.421 1.327 10.773l-3.342 4.357c-22.372 31.427-17.666 75.26-17.614 75.719.486 4.244-2.557 8.085-6.8 8.576-4.252.503-8.083-2.542-8.58-6.785-.137-1.173-1.81-16.408 1.108-35.936l-38.705 50.463c-1.523 1.986-3.822 3.029-6.148 3.029z" fill="#994e37"/><path d="m409.608 120.027c-16.074 0-31.273 3.727-44.809 10.341-.972 2.848-1.504 5.851-1.504 8.91v.071c0 12.719 1.715 25.231 4.992 37.255 10.943-9.88 25.426-15.899 41.32-15.899 34.121 0 61.781 27.706 61.781 61.883 0 23.348-12.92 43.653-31.982 54.185 7.864 10.348 15.153 21.934 21.173 34.745 30.72-17.7 51.419-50.883 51.419-88.93.002-56.643-45.84-102.561-102.39-102.561z" fill="#c6c6c6"/><path d="m379.419 38.379h-122.9v-19.181c0-10.603 8.595-19.198 19.197-19.198h84.505c10.602 0 19.197 8.595 19.197 19.198v19.181z" fill="#cc624e"/><path d="m360.221 0h-24.685c10.602 0 19.197 8.595 19.197 19.198v19.182h24.685v-19.182c.001-10.603-8.594-19.198-19.197-19.198z" fill="#bc574a"/><path d="m242.524 512c-11.521 0-22.502-4.96-30.076-13.656-27.759-31.873-50.185-71.148-50.185-114.854 0-63.714 35.014-109.71 66.138-138.01 29.94-27.223 47.308-65.628 47.308-106.131v-.071c0-6.71-2.443-13.19-6.871-18.225l-18.369-20.886c-8.781-9.984-13.626-22.833-13.626-36.139v-15.639c0-5.528 4.474-10.009 9.993-10.009h145.332c5.519 0 9.993 4.481 9.993 10.009v15.639c0 13.306-4.844 26.155-13.625 36.139l-18.369 20.886c-4.428 5.035-6.871 11.515-6.871 18.225v.071c0 40.503 17.368 78.908 47.308 106.131 31.124 28.3 66.138 74.295 66.138 138.01 0 43.706-22.426 82.981-50.185 114.854-7.573 8.696-18.554 13.656-30.076 13.656z" fill="#e0e0e0"/><path d="m459.813 258.62c-5.357 7.463-12.326 13.688-20.405 18.152 7.864 10.348 15.154 21.934 21.173 34.745 8.577-4.942 16.37-11.093 23.152-18.217-7.018-12.948-15.273-24.507-23.92-34.68z" fill="#bababa"/><path d="m391.167 130.472v-.071c0-3.079.538-6.102 1.522-8.967-9.841 1.645-19.209 4.692-27.889 8.933-.972 2.848-1.504 5.851-1.504 8.91v.071c0 12.719 1.715 25.231 4.992 37.255 7.439-6.717 16.517-11.642 26.56-14.112-2.416-10.405-3.681-21.135-3.681-32.019z" fill="#bababa"/><path d="m410.604 245.479c-29.94-27.223-47.308-65.628-47.308-106.131v-.071c0-6.71 2.443-13.19 6.871-18.225l18.369-20.886c8.781-9.984 13.625-22.833 13.625-36.139v-15.638c0-5.528-4.474-10.01-9.993-10.01h-27.871c5.519 0 9.993 4.482 9.993 10.01v15.639c0 13.306-4.845 26.155-13.626 36.139l-18.369 20.886c-4.428 5.035-6.871 11.515-6.871 18.225v.071c0 40.503 17.368 78.908 47.308 106.131 31.124 28.3 66.138 74.296 66.138 138.01 0 43.706-22.426 82.981-50.185 114.854-7.572 8.696-18.553 13.656-30.075 13.656h27.871c11.522 0 22.502-4.96 30.076-13.656 27.759-31.873 50.185-71.148 50.185-114.854.001-63.715-35.014-109.711-66.138-138.011z" fill="#ccc"/><path d="m410.604 245.479c-6.762-6.148-12.876-12.872-18.3-20.056h-145.603c-5.424 7.185-11.538 13.908-18.3 20.056-31.124 28.3-66.138 74.296-66.138 138.01 0 43.706 22.426 82.981 50.185 114.854 7.574 8.697 18.555 13.657 30.076 13.657h153.957c11.521 0 22.502-4.96 30.076-13.656 27.759-31.873 50.185-71.148 50.185-114.854.001-63.715-35.014-109.711-66.138-138.011z" fill="#ffaa5c"/><path d="m410.604 245.479c-6.762-6.148-12.876-12.872-18.3-20.056h-27.871c5.424 7.185 11.538 13.908 18.3 20.056 31.124 28.3 66.138 74.296 66.138 138.01 0 43.706-22.426 82.981-50.185 114.854-7.573 8.697-18.554 13.657-30.076 13.657h27.871c11.522 0 22.502-4.96 30.076-13.656 27.759-31.873 50.185-71.148 50.185-114.854.001-63.715-35.014-109.711-66.138-138.011z" fill="#ff9838"/><ellipse cx="133.112" cy="447.375" fill="#348021" rx="47.745" ry="64.625"/><ellipse cx="52.691" cy="449.713" fill="#348021" rx="64.604" ry="47.761" transform="matrix(.447 -.895 .895 .447 -373.207 295.997)"/><path d="m81.638 391.957c-2.655-1.335-5.388-2.362-8.169-3.109 12.387 15.197 14.279 39.749-.004 68.246-16.454 32.83-41.539 45.293-63.448 39.408 3.695 4.533 8.313 8.244 13.727 10.966 23.566 11.85 53.074.698 71.617-36.299s9.843-67.362-13.723-79.212z" fill="#2e701b"/><path d="m133.112 382.75c-4.849 0-9.526.792-13.935 2.331 19.57 6.832 33.81 28.508 33.81 62.294 0 33.785-14.24 55.462-33.81 62.294 4.409 1.539 9.087 2.331 13.935 2.331 26.369 0 47.745-23.227 47.745-64.625s-21.376-64.625-47.745-64.625z" fill="#2e701b"/><g fill="#255616"><path d="m42.351 494.936c4.332 0 8.7-1.851 10.717-5.877 3.277-6.539-1.1-14.457-10.643-19.254-6.678-3.359-17.689-5.245-21.802 2.963-3.277 6.539 1.1 14.456 10.643 19.254 3.822 1.922 7.668 2.914 11.085 2.914z"/><path d="m132.872 469.803c-10.686 0-18.149 5.113-18.149 12.434 0 7.32 7.463 12.433 18.149 12.433s18.149-5.113 18.149-12.433c0-7.322-7.463-12.434-18.149-12.434z"/></g></svg>