<svg id="Capa_1" enable-background="new 0 0 512 512" height="512" viewBox="0 0 512 512" width="512" xmlns="http://www.w3.org/2000/svg"><g><g><path d="m353.515 118.578-140.812 204.044-19.955 163.236 208.521 26.137 34.731-288.447z" fill="#ff641a"/></g><path d="m498.838 12.813c-7.897-7.897-18.768-12.274-29.895-12.762-12.11-.531-24.523 3.547-33.738 12.762l-104.088 104.432 10.316 10.316 10.895 10.895 30.91-31.264c29.328 19.39 68.954 15.901 94.389-9.534l21.211-21.211c17.549-17.55 17.549-46.085 0-63.634zm-21.211 42.422-21.211 21.211c-13.843 13.843-34.497 16.772-51.226 8.789l51.226-51.211c5.859-5.859 15.352-5.859 21.211 0 5.845 5.845 5.845 15.366 0 21.211z" fill="#516373"/><path d="m383.238 107.191c29.328 19.39 68.954 15.901 94.389-9.534l21.211-21.211c17.549-17.549 17.549-46.084 0-63.633-7.897-7.897-18.768-12.274-29.895-12.762l-127.51 127.51 10.895 10.895zm73.179-73.167c5.859-5.859 15.352-5.859 21.211 0 5.845 5.845 5.845 15.366 0 21.211l-21.211 21.211c-13.843 13.843-34.497 16.772-51.226 8.789z" fill="#3e4d59"/><path d="m355.985 112.995h-147.754l-208.231 207.508 74.246 74.246 74.245 74.246 207.509-207.654v-148.346z" fill="#ffe680"/><path d="m356 261.341v-148.346l-281.754 281.754 74.245 74.246z" fill="#ffc550"/><path d="m278.075 212.694-10.887-10.887-10.324-10.324-23.357 23.357c-16.686-7.859-37.083-5.316-50.881 8.459-17.453 17.453-17.541 45.776-.28 63.349 6.568 6.688 5.773 16.016.28 21.509-5.801 5.801-15.488 6.025-21.484-.305-5.557-5.867-5.475-15.158.273-20.906l-21.24-21.211c-13.751 13.786-16.296 34.178-8.436 50.872l-23.366 23.366 10.324 10.324 10.887 10.887 23.355-23.355c19.457 9.192 38.696 3.741 50.898-8.461 16.144-16.144 19.026-43.524-.272-63.938-5.557-5.88-5.475-15.157.272-20.905 5.735-5.764 15.062-5.831 20.915-.282 6.194 5.874 6.188 15.586.296 21.493l21.211 21.211c13.788-13.788 16.34-34.193 8.463-50.9z" fill="#ff7b4a"/><g fill="#ff435b"><path d="m225.048 265.736 21.211 21.211c13.788-13.788 16.34-34.193 8.463-50.9l23.353-23.353-10.887-10.887-42.436 42.436c6.193 5.874 6.188 15.586.296 21.493z"/><path d="m152.939 337.83c19.457 9.192 38.696 3.741 50.898-8.461 16.144-16.144 19.026-43.524-.272-63.938l-21.219 21.219c6.568 6.689 5.773 16.016.28 21.509-5.801 5.801-15.488 6.025-21.484-.305l-42.445 42.445 10.887 10.887z"/></g></g></svg>