<?xml version="1.0" encoding="iso-8859-1"?>
<!-- Generator: Adobe Illustrator 19.0.0, SVG Export Plug-In . SVG Version: 6.00 Build 0)  -->
<svg version="1.1" id="Capa_1" xmlns="http://www.w3.org/2000/svg" xmlns:xlink="http://www.w3.org/1999/xlink" x="0px" y="0px"
	 viewBox="0 0 512.001 512.001" style="enable-background:new 0 0 512.001 512.001;" xml:space="preserve">
<path style="fill:#FF6C6C;" d="M500.896,213.478l-33.94-135.765c-2.121-8.061-6.151-15.062-11.879-20.79s-12.729-9.759-20.79-11.879
	l-135.765-33.94c-15.272-3.818-31.606,0.636-42.85,11.879L13.205,265.45c-17.606,17.606-17.607,46.032,0,63.64l169.706,169.706
	c17.607,17.607,46.034,17.606,63.64,0l242.467-242.467C500.261,245.085,504.715,228.75,500.896,213.478z M331.403,180.597
	c-17.607-17.607-17.606-46.034,0-63.64c17.607-17.607,46.032-17.607,63.64,0s17.607,46.032,0,63.64
	C377.437,198.203,349.01,198.204,331.403,180.597z"/>
<path style="fill:#FF4949;" d="M489.017,256.328L246.55,498.795c-17.606,17.606-46.032,17.607-63.64,0l-84.853-84.853
	l233.345-233.345c17.607,17.607,46.034,17.606,63.64,0c17.607-17.607,17.607-46.032,0-63.64l60.034-60.034
	c5.728,5.728,9.759,12.729,11.879,20.79l33.941,135.765C504.715,228.75,500.261,245.085,489.017,256.328z"/>
<path style="fill:#FFE470;" d="M182.911,244.237c-17.546-17.546-17.546-46.093,0-63.64s46.093-17.546,63.64,0s17.546,46.093,0,63.64
	S200.457,261.783,182.911,244.237z M225.337,201.81c-5.852-5.852-15.361-5.852-21.213,0s-5.852,15.361,0,21.213
	s15.361,5.852,21.213,0C231.189,217.171,231.189,207.662,225.337,201.81z"/>
<path style="fill:#FFD400;" d="M204.124,392.729c-17.546-17.546-17.546-46.093,0-63.64c17.546-17.546,46.093-17.546,63.64,0
	c17.546,17.546,17.546,46.093,0,63.64C250.217,410.275,221.67,410.275,204.124,392.729z M246.55,350.303
	c-5.852-5.852-15.361-5.852-21.213,0c-5.852,5.852-5.852,15.361,0,21.213c5.852,5.852,15.361,5.852,21.213,0
	C252.403,365.664,252.403,356.155,246.55,350.303z"/>
<path style="fill:#FFE470;" d="M322.494,290.906l-114.127,12.727l-76.792,8.486c-4.88,0.636-9.122-1.06-12.304-4.243
	c-2.333-2.333-3.817-5.516-4.243-8.909c-1.06-8.275,5.092-15.699,13.152-16.547l114.127-12.727l76.792-8.486
	c8.275-1.06,15.698,5.091,16.547,13.152C336.708,282.632,330.555,290.056,322.494,290.906z"/>
<path style="fill:#FFD400;" d="M322.494,290.906l-114.127,12.727l33.941-33.941l76.792-8.486c8.275-1.06,15.698,5.091,16.547,13.152
	C336.708,282.632,330.555,290.056,322.494,290.906z"/>
<path style="fill:#3E5959;" d="M507.545,25.668L395.043,138.171c-5.94,5.94-15.273,5.94-21.213,0s-5.94-15.273,0-21.213
	L486.332,4.455c5.94-5.94,15.273-5.94,21.213,0C513.485,10.395,513.485,19.728,507.545,25.668z"/>
<path style="fill:#384949;" d="M373.829,138.171L507.545,4.455c5.94,5.94,5.94,15.273,0,21.213L395.043,138.171
	C389.102,144.111,379.77,144.111,373.829,138.171z"/>
<g>
</g>
<g>
</g>
<g>
</g>
<g>
</g>
<g>
</g>
<g>
</g>
<g>
</g>
<g>
</g>
<g>
</g>
<g>
</g>
<g>
</g>
<g>
</g>
<g>
</g>
<g>
</g>
<g>
</g>
</svg>
