<svg id="Flat" height="512" viewBox="0 0 512 512" width="512" xmlns="http://www.w3.org/2000/svg"><path d="m232 360c-8.837 0-16-7.641-16-17.067v-238.933h32v238.933c0 9.426-7.163 17.067-16 17.067z" fill="#ffd33a"/><path d="m40 440h112v48h-112z" fill="#ea9f26"/><path d="m152 440h-112l-16-376h144z" fill="#ffd33a"/><path d="m168 64-1.36 32h-141.28l-1.36-32z" fill="#ea9f26"/><path d="m248 24h48v96h-48z" fill="#e1e3e6"/><path d="m232 24h16a16 16 0 0 1 16 16v64a16 16 0 0 1 -16 16h-32a0 0 0 0 1 0 0v-80a16 16 0 0 1 16-16z" fill="#ffd33a"/><path d="m88 232h224v256h-224z" fill="#e1e3e6"/><rect fill="#3397e8" height="320" rx="32" transform="matrix(-1 0 0 -1 800 656)" width="176" x="312" y="168"/><path d="m424 136v-32h-48v32a16 16 0 0 0 -16 16v16h80v-16a16 16 0 0 0 -16-16z" fill="#e1e3e6"/><path d="m376 24h96a0 0 0 0 1 0 0v16a16 16 0 0 1 -16 16h-80a16 16 0 0 1 -16-16 16 16 0 0 1 16-16z" fill="#e1e3e6" transform="matrix(-1 0 0 -1 832 80)"/><path d="m384 56h32v48h-32z" fill="#c3c6c7" transform="matrix(-1 0 0 -1 800 160)"/><ellipse cx="400" cy="240" fill="#266fab" rx="48" ry="32"/><rect fill="#a3d4f7" height="112" rx="32" width="192" x="192" y="328"/><path d="m168 440h240a0 0 0 0 1 0 0v16a32 32 0 0 1 -32 32h-176a32 32 0 0 1 -32-32v-16a0 0 0 0 1 0 0z" fill="#266fab"/><g fill="#e9eef2"><path d="m136 304a8 8 0 0 1 -8-8v-16a8 8 0 0 1 16 0v16a8 8 0 0 1 -8 8z"/><path d="m136 352a8 8 0 0 1 -8-8v-16a8 8 0 0 1 16 0v16a8 8 0 0 1 -8 8z"/><path d="m136 400a8 8 0 0 1 -8-8v-16a8 8 0 0 1 16 0v16a8 8 0 0 1 -8 8z"/><path d="m136 448a8 8 0 0 1 -8-8v-16a8 8 0 0 1 16 0v16a8 8 0 0 1 -8 8z"/><path d="m144 232v16a8 8 0 0 1 -16 0v-16z"/><path d="m128 488v-16a8 8 0 0 1 16 0v16z"/><path d="m264 80h32v16h-32z"/><path d="m264 48h32v16h-32z"/></g></svg>