<svg id="Capa_1" enable-background="new 0 0 497.591 497.591" height="512" viewBox="0 0 497.591 497.591" width="512" xmlns="http://www.w3.org/2000/svg"><g><g><path d="m366.492 123.587c-.167 0-.331.01-.497.012-2.715-15.729-16.416-27.698-32.921-27.698-4.742 0-9.25.994-13.336 2.774-2.808-20.409-20.307-36.133-41.488-36.133-14.407 0-27.112 7.274-34.651 18.348-6.055-6.098-14.442-9.875-23.714-9.875-16.507 0-30.208 11.97-32.922 27.702-4.111-1.807-8.651-2.817-13.429-2.817-16.505 0-30.206 11.969-32.921 27.698-.167-.002-.331-.012-.497-.012-21.624 0-39.153 17.529-39.153 39.153 0 21.623 17.529 39.153 39.153 39.153h226.377c21.624 0 39.153-17.529 39.153-39.153-.001-21.623-17.531-39.152-39.154-39.152z" fill="#e3a76f"/></g><g><g><path d="m366.492 123.587c-.167 0-.331.01-.497.012-2.715-15.729-16.416-27.698-32.921-27.698-4.742 0-9.25.994-13.336 2.774-2.808-20.409-20.307-36.133-41.488-36.133-11.294 0-21.53 4.484-29.063 11.751 11.531 4.18 21.002 12.654 26.478 23.493 3.77 7.462 11.546 11.9 19.913 11.814.007 0 .014 0 .021.001 20.965 1.659 30.539 12.731 34.844 21.325 3.039 6.066 8.605 10.516 15.153 12.293 13.229 3.591 32.915 13.814 33.051 42.868.024 5.11-.867 10.014-2.442 14.589 16.926-4.32 29.442-19.666 29.442-37.937-.002-21.623-17.532-39.152-39.155-39.152z" fill="#d6995c"/></g></g><g><path d="m462.934 388.649-213.749 20-214.529-20-1.039-30.827c-1.951-57.887 5.87-115.689 23.135-170.976 4.629-14.825 18.357-24.92 33.888-24.92h316.31c15.531 0 29.259 10.095 33.888 24.92 17.264 55.287 25.086 113.089 23.135 170.976z" fill="#56988c"/></g><g><path d="m440.839 186.845c-4.629-14.825-18.357-24.92-33.888-24.92h-30c15.531 0 29.259 10.095 33.888 24.92 17.264 55.287 25.086 113.089 23.134 170.976l-1.039 30.827 17.302 10 12.698-10 1.039-30.827c1.951-57.887-5.87-115.689-23.134-170.976z" fill="#4e8a80"/></g><g><path d="m474.391 435.048h-451.192c-12.812 0-23.199-10.387-23.199-23.2 0-12.813 10.387-23.199 23.199-23.199h451.192c12.813 0 23.199 10.387 23.199 23.199.001 12.813-10.386 23.2-23.199 23.2z" fill="#77d1b3"/></g><g><path d="m474.391 388.649h-30c12.813 0 23.199 10.387 23.199 23.199 0 12.813-10.387 23.199-23.199 23.199h30c12.813 0 23.199-10.387 23.199-23.199.001-12.812-10.386-23.199-23.199-23.199z" fill="#67b59f"/></g><g><g><path d="m270.219 232.06c0 6.465-2.985 11.667-6.727 15.647-8.359 8.892-22.598 8.689-30.169-.883-2.934-3.71-5.299-8.547-5.951-14.764-1.236-11.767 9.592-21.424 21.424-21.424s21.423 9.592 21.423 21.424z" fill="#a1f2c0"/></g><g><path d="m164.007 274.25c3.912 5.147 9.436 7.482 14.824 8.387 12.036 2.021 23.249-6.758 23.484-18.96.091-4.729-.954-10.01-4.196-15.355-6.137-10.116-20.6-11.251-30.02-4.092-9.42 7.16-11.251 20.601-4.092 30.02z" fill="#a1f2c0"/></g><g><path d="m276.376 288.586c-16.671-11.331-38.587-11.331-55.259 0-9.979 6.783-18.835 15.694-18.835 25.957 0 18.857 12.681 30.883 31.506 26.703 9.863-2.19 20.054-2.19 29.917 0 18.824 4.18 31.505-7.846 31.505-26.703.001-10.263-8.854-19.174-18.834-25.957z" fill="#a1f2c0"/></g><g><path d="m333.583 274.25c-3.912 5.147-9.436 7.482-14.824 8.387-12.036 2.021-23.249-6.758-23.484-18.96-.091-4.729.953-10.01 4.196-15.355 6.137-10.116 20.6-11.251 30.02-4.092 9.42 7.16 11.252 20.601 4.092 30.02z" fill="#a1f2c0"/></g></g></g></svg>