<svg height="512" viewBox="0 0 512 512" width="512" xmlns="http://www.w3.org/2000/svg"><g id="Flat"><g><g><g><path d="m458 176h-10v-40h-176v40h-10a30 30 0 0 0 -30 30v242a40 40 0 0 0 40 40h176a40 40 0 0 0 40-40v-242a30 30 0 0 0 -30-30z" fill="#f7e1db"/><path d="m232 248h256v192h-256z" fill="#fa5d3f"/><path d="m296 288h152v72h-152z" fill="#fac850"/><g><path d="m268 24h184a20 20 0 0 1 20 20v82a10 10 0 0 1 -10 10h-204a10 10 0 0 1 -10-10v-82a20 20 0 0 1 20-20z" fill="#fa5d3f"/><g fill="#fac850"><path d="m272 48h16v64h-16z"/><path d="m304 48h16v64h-16z"/><path d="m336 48h16v64h-16z"/><path d="m368 48h16v64h-16z"/><path d="m400 48h16v64h-16z"/><path d="m432 48h16v64h-16z"/></g></g><g fill="#fff9f8"><path d="m296 392h48v16h-48z"/><path d="m360 392h96v16h-96z"/></g></g><path d="m168 112 14.142 25.858 25.858 14.142-25.858 14.142-14.142 25.858-14.142-25.858-25.858-14.142 25.858-14.142z" fill="#9ae2f0"/></g><g><rect fill="#79d8eb" height="256" rx="70" width="144" x="128" y="232"/><path d="m184 352h88v32h-72z" fill="#fff9f8"/></g><path d="m70.101 69.899-9.9 18.101-18.1 9.899 18.1 9.9 9.9 18.1 9.899-18.1 18.101-9.9-18.101-9.899z" fill="#9ae2f0"/><g><circle cx="112" cy="400" fill="#fac850" r="88"/><path d="m39.4925 350.12 122.3875 122.3876a88.4932 88.4932 0 0 0 22.6275-22.6276l-122.3875-122.3876a88.4948 88.4948 0 0 0 -22.6275 22.6276z" fill="#f29a49"/></g></g></g></svg>