<svg height="511pt" viewBox="1 0 511.99967 511" width="511pt" xmlns="http://www.w3.org/2000/svg"><path d="m512 256.5c0 141.183594-113.207031 255.125-254.386719 255.996094-38.867187.238281-75.738281-8.1875-108.800781-23.457032-5.375-2.480468-8.8125-7.863281-8.8125-13.78125 0-11.554687-9.371094-20.925781-20.925781-20.925781h-25.550781c-57.324219-47.132812-93.808594-118.695312-93.523438-198.765625.507812-142.054687 117.832031-257.144531 259.871094-255.039062 139.601562 2.070312 252.128906 115.878906 252.128906 255.972656zm0 0" fill="#2abbc7"/><path d="m463.964844 405.792969c-16.246094 22.59375-36.078125 42.425781-58.671875 58.671875-.429688.011718-.859375.035156-1.292969.035156 0 0-238.144531-.019531-288.152344-.03125-6.136718 0-12.089844-2.0625-16.933594-5.832031-19.378906-15.082031-36.53125-32.886719-50.882812-52.84375-.007812-.429688-.03125-.859375-.03125-1.292969v-296c0-.433594.023438-.863281.03125-1.296875 16.25-22.589844 36.082031-42.425781 58.671875-58.671875.433594-.007812.863281-.03125 1.296875-.03125h296c.433594 0 .863281.023438 1.292969.03125 22.59375 16.25 42.425781 36.082031 58.671875 58.671875.011718.433594.035156.863281.035156 1.296875v296c0 .433594-.023438.863281-.035156 1.292969zm0 0" fill="#495959"/><path d="m463.964844 107.203125c-.679688-32.105469-26.566406-57.988281-58.671875-58.671875-.429688-.007812-.859375-.03125-1.292969-.03125h-254c-15.210938 0-29.089844 5.671875-39.664062 15h125.664062c5.523438 0 10 4.476562 10 10v153c0 11.046875-8.953125 20-20 20h-136v20h136c11.046875 0 20 8.953125 20 20v153c0 5.523438-4.476562 10-10 10h-125.664062c10.574218 9.328125 24.453124 15 39.664062 15h254c.433594 0 .863281-.023438 1.292969-.035156 22.59375-16.246094 42.425781-36.078125 58.671875-58.671875.011718-.429688.035156-.859375.035156-1.292969v-296c0-.433594-.023438-.863281-.035156-1.296875zm-14.964844 297.296875c0 24.851562-20.148438 45-45 45h-128c-5.523438 0-10-4.476562-10-10v-153c0-11.046875 8.953125-20 20-20h153c5.523438 0 10 4.476562 10 10zm0-168c0 5.523438-4.476562 10-10 10h-153c-11.046875 0-20-8.953125-20-20v-153c0-5.523438 4.476562-10 10-10h128c24.851562 0 45 20.144531 45 45zm0 0" fill="#607882"/><path d="m151 226.464844c0 2.136718-1.679688 3.921875-3.820312 3.996094-.722657.023437-1.449219.039062-2.179688.039062-41.421875 0-75-33.578125-75-75s33.578125-75 75-75c.730469 0 1.457031.011719 2.179688.039062 2.140624.070313 3.820312 1.855469 3.820312 3.996094zm0 0" fill="#e84444"/><path d="m145 201.5c2.023438 0 4.019531-.105469 6-.261719v25.226563c0 2.136718-1.679688 3.921875-3.820312 3.996094-.722657.023437-1.449219.039062-2.179688.039062-41.421875 0-75-33.578125-75-75 0-4.960938.492188-9.808594 1.414062-14.5 6.753907 34.480469 37.125 60.5 73.585938 60.5zm0 0" fill="#d73131"/><path d="m151 226.488281c0 2.175781-1.738281 3.972657-3.910156 4.007813-.179688 0-.355469.003906-.535156.003906-30.683594 0-55.554688-33.578125-55.554688-75s24.871094-75 55.554688-75c.179687 0 .355468 0 .535156.003906 2.171875.035156 3.910156 1.832032 3.910156 4.003906zm0 0" fill="#fd6c55"/><path d="m220 226.464844c0 2.136718-1.679688 3.921875-3.820312 3.996094-.722657.023437-1.449219.039062-2.179688.039062-41.421875 0-75-33.578125-75-75s33.578125-75 75-75c.730469 0 1.457031.011719 2.179688.039062 2.140624.070313 3.820312 1.855469 3.820312 3.996094zm0 0" fill="#e84444"/><path d="m214 201.5c2.023438 0 4.019531-.105469 6-.261719v25.226563c0 2.136718-1.679688 3.921875-3.820312 3.996094-.722657.023437-1.449219.039062-2.179688.039062-41.421875 0-75-33.578125-75-75 0-4.960938.492188-9.808594 1.414062-14.5 6.753907 34.480469 37.125 60.5 73.585938 60.5zm0 0" fill="#d73131"/><path d="m220 226.488281c0 2.175781-1.738281 3.972657-3.910156 4.007813-.179688 0-.355469.003906-.535156.003906-30.683594 0-55.554688-33.578125-55.554688-75s24.871094-75 55.554688-75c.179687 0 .355468 0 .535156.003906 2.171875.035156 3.910156 1.832032 3.910156 4.003906zm0 0" fill="#fd6c55"/><path d="m118.136719 163.921875c-3.554688 1.671875-7.777344.9375-10.554688-1.839844-3.636719-3.636719-3.636719-9.53125 0-13.164062 2.777344-2.78125 7-3.515625 10.554688-1.839844l15.945312 7.515625c.761719.363281.761719 1.449219 0 1.8125zm20.867187 17.292969-16.589844 5.960937c-3.699218 1.328125-6.164062 4.832031-6.164062 8.761719 0 5.144531 4.167969 9.3125 9.3125 9.3125 3.925781 0 7.433594-2.464844 8.761719-6.164062l5.960937-16.589844c.285156-.796875-.488281-1.566406-1.28125-1.28125zm-4.679687-69.300782c-1.328125-3.699218-4.835938-6.164062-8.761719-6.164062-5.144531 0-9.3125 4.167969-9.3125 9.3125 0 3.925781 2.464844 7.433594 6.164062 8.761719l16.589844 5.960937c.792969.285156 1.5625-.484375 1.277344-1.28125zm68.757812 44.492188c.761719-.363281.761719-1.449219 0-1.8125l-15.945312-7.515625c-3.554688-1.675781-7.777344-.9375-10.554688 1.839844-3.636719 3.632812-3.636719 9.53125 0 13.164062 2.777344 2.777344 7 3.511719 10.554688 1.839844zm4.921875 24.808594-16.589844 5.960937c-3.699218 1.328125-6.164062 4.832031-6.164062 8.761719 0 5.144531 4.167969 9.3125 9.3125 9.3125 3.925781 0 7.433594-2.464844 8.761719-6.164062l5.960937-16.589844c.285156-.796875-.488281-1.566406-1.28125-1.28125zm-16.589844-57.390625 16.589844 5.957031c.796875.285156 1.566406-.484375 1.277344-1.277344l-5.957031-16.589844c-1.328125-3.699218-4.835938-6.164062-8.761719-6.164062-5.144531 0-9.3125 4.167969-9.3125 9.3125 0 3.925781 2.464844 7.433594 6.164062 8.761719zm0 0" fill="#fc544d"/><path d="m234.195312 378.382812c0 13.511719-10.957031 24.46875-24.46875 24.46875h-48.941406c-13.515625 0-24.472656-10.957031-24.472656-24.46875 0-6.304687 2.386719-12.054687 6.304688-16.390624-12.648438-.949219-22.617188-11.503907-22.617188-24.394532 0-6.269531 2.359375-11.984375 6.234375-16.3125-3.875-4.332031-6.234375-10.046875-6.234375-16.316406 0-13.511719 10.957031-24.46875 24.46875-24.46875h65.257812c13.515626 0 24.46875 10.957031 24.46875 24.46875 0 13.515625-10.953124 24.472656-24.46875 24.472656h-4.078124c-6.757813 0-12.238282 5.476563-12.238282 12.234375 0 6.074219 4.429688 11.097657 10.230469 12.058594-.050781.058594-.097656.117187-.152344.175781h6.238281c13.511719 0 24.46875 10.957032 24.46875 24.472656zm0 0" fill="#0cc33c"/><path d="m174.664062 406.589844c0 12.53125-10.160156 22.691406-22.6875 22.691406h-45.378906c-12.53125 0-22.691406-10.160156-22.691406-22.691406 0-5.84375 2.214844-11.171875 5.84375-15.195313-11.726562-.882812-20.96875-10.667969-20.96875-22.621093 0-5.808594 2.1875-11.109376 5.78125-15.125-3.59375-4.011719-5.78125-9.3125-5.78125-15.125 0-12.53125 10.160156-22.6875 22.6875-22.6875h60.507812c12.527344 0 22.6875 10.15625 22.6875 22.6875s-10.160156 22.6875-22.6875 22.6875h-3.78125c-6.265624 0-11.347656 5.082031-11.347656 11.347656 0 5.628906 4.109375 10.289062 9.488282 11.175781-.050782.054687-.09375.113281-.140626.167969h5.78125c12.527344 0 22.6875 10.15625 22.6875 22.6875zm0 0" fill="#0ca12d"/><path d="m195.882812 371.253906c0 12.53125-10.160156 22.691406-22.691406 22.691406h-45.375c-12.53125 0-22.691406-10.160156-22.691406-22.691406 0-5.84375 2.210938-11.171875 5.84375-15.195312-11.726562-.878906-20.96875-10.667969-20.96875-22.617188 0-5.8125 2.1875-11.113281 5.78125-15.128906-3.59375-4.011719-5.78125-9.3125-5.78125-15.125 0-12.53125 10.15625-22.6875 22.6875-22.6875h60.503906c12.53125 0 22.691406 10.15625 22.691406 22.6875s-10.160156 22.691406-22.691406 22.691406h-3.78125c-6.261718 0-11.34375 5.078125-11.34375 11.34375 0 5.628906 4.105469 10.289063 9.484375 11.179688-.046875.054687-.089843.109375-.140625.164062h5.785156c12.527344 0 22.6875 10.15625 22.6875 22.6875zm0 0" fill="#49cb5c"/><path d="m180 244.742188v92.484374c0 21.757813-12.417969 40.605469-30.546875 49.875v102.226563c-18.21875-8.351563-35.289063-18.773437-50.90625-30.972656v-71.253907c-18.128906-9.269531-30.546875-28.117187-30.546875-49.875v-92.484374c0-2.34375 1.898438-4.242188 4.242188-4.242188 12.652343 0 22.910156 10.257812 22.910156 22.910156v62.785156c0 4.21875 3.417968 7.636719 7.632812 7.636719 4.21875 0 7.636719-3.417969 7.636719-7.636719v-63.851562c0-8.308594 4.28125-16.035156 11.328125-20.4375 1.378906-.863281 3.117188-.863281 4.496094 0 7.046875 4.402344 11.328125 12.125 11.328125 20.4375v63.851562c0 4.21875 3.417969 7.636719 7.636719 7.636719 4.214843 0 7.632812-3.417969 7.632812-7.636719v-62.785156c0-12.652344 10.257812-22.910156 22.910156-22.910156 2.347656 0 4.246094 1.898438 4.246094 4.242188zm0 0" fill="#fff2b4"/><path d="m125.648438 388.152344v88.699218c-9.441407-5.59375-18.496094-11.769531-27.105469-18.496093v-71.253907c-18.125-9.269531-30.542969-28.117187-30.542969-49.875v-92.484374c0-2.34375 1.898438-4.242188 4.242188-4.242188 12.179687 0 22.136718 9.507812 22.863281 21.507812v56.550782s.015625 4.882812.046875 5.621094c0 0 .113281 3.527343.324218 4.226562 1.648438 14.359375 8.734376 27.066406 19.144532 36.015625 6.9375 5.960937 11.027344 14.582031 11.027344 23.730469zm0 0" fill="#ffe899"/><path d="m372.839844 159.25c-1.503906.546875-3 1.066406-4.496094 1.570312 35.339844 1.242188 61.65625 6 61.65625 11.679688v4c0 6.085938-16.988281 15.167969-41.992188 20.234375 25.691407 5.464844 42.972657 11.898437 42.34375 16.550781-.078124.574219-.433593 3.195313-.535156 3.964844-1.183594 8.753906-38.710937 18.984375-82.496094 13.066406-43.78125-5.914062-77.246093-25.738281-76.0625-34.496094.101563-.769531.457032-3.386718.535157-3.964843.28125-2.09375 4.167969-3.570313 10.734375-4.421875-7.917969-3.796875-12.527344-7.769532-12.527344-10.933594 0-.777344 0-3.417969 0-4 0-3.019531 7.449219-5.777344 19.71875-7.886719-.09375-.167969-.195312-.335937-.257812-.507812-.265626-.730469-1.171876-3.210938-1.371094-3.757813-2.269532-6.226562 29.539062-23.542968 71.046875-38.679687 1.5625-.570313 3.109375-1.121094 4.652343-1.667969-4.480468.316406-9.085937.5-13.789062.5-44.183594 0-80-15.164062-80-24 0-.777344 0-3.417969 0-4 0-6.628906 35.816406-12 80-12s80 5.371094 80 12v4c0 2.171875-2.171875 4.722656-6.089844 7.339844 8.382813-1.046875 13.667969-.578125 14.5 1.699218.199219.546876 1.101563 3.027344 1.367188 3.757813 3.03125 8.300781-25.425782 34.816406-66.9375 49.953125zm0 0" fill="#fc9302"/><path d="m270 92.5c0-6.628906 35.816406-12 80-12s80 5.371094 80 12c0 6.625-35.816406 12-80 12s-80-5.375-80-12zm82.675781 98.179688c-43.78125-5.917969-79.996093-5.390626-80.882812 1.175781-.890625 6.570312 33.886719 16.691406 77.671875 22.605469 43.785156 5.917968 79.996094 5.390624 80.886718-1.175782.886719-6.566406-33.890624-16.6875-77.675781-22.605468zm77.324219-18.179688c0-5.679688-26.316406-10.4375-61.65625-11.679688-38.910156 13.113282-74.367188 11.367188-78.625 3.796876-12.269531 2.105468-19.71875 4.863281-19.71875 7.882812 0 6.625 35.816406 12 80 12s80-5.375 80-12zm8.410156-66.960938c-2.273437-6.226562-37.761718.996094-79.273437 16.128907-41.507813 15.136719-73.320313 32.453125-71.046875 38.679687 2.269531 6.226563 37.761718-.996094 79.269531-16.128906 41.511719-15.136719 73.320313-32.453125 71.050781-38.679688zm0 0" fill="#fdbf43"/><path d="m440 310.5c0-16.570312-13.429688-30-30-30-12.875 0-23.851562 8.109375-28.105469 19.5-5.476562-5.84375-13.257812-9.5-21.894531-9.5s-16.417969 3.65625-21.894531 9.5c-4.253907-11.390625-15.230469-19.5-28.105469-19.5-16.570312 0-30 13.429688-30 30 0 13.835938 9.371094 25.480469 22.113281 28.945312-1.359375 3.421876-2.113281 7.148438-2.113281 11.054688 0 7.730469 2.925781 14.773438 7.726562 20.09375-15.507812 1.164062-27.726562 14.101562-27.726562 29.90625 0 16.566406 13.429688 30 30 30 13.835938 0 25.480469-9.371094 28.945312-22.113281 3.421876 1.359375 7.148438 2.113281 11.054688 2.113281 7.730469 0 14.777344-2.925781 20.09375-7.726562 1.164062 15.503906 14.101562 27.726562 29.90625 27.726562 16.570312 0 30-13.433594 30-30 0-12.875-8.113281-23.851562-19.5-28.109375 5.84375-5.472656 9.5-13.253906 9.5-21.890625 0-3.90625-.753906-7.632812-2.113281-11.054688 12.742187-3.464843 22.113281-15.109374 22.113281-28.945312zm-79.949219 41.730469c-.03125-.011719-.066406-.027344-.101562-.039063.03125-.558594.050781-1.125.050781-1.691406 0 .582031.019531 1.15625.050781 1.730469zm0 0" fill="#fd7d43"/><path d="m344.980469 350.921875c-8.558594 1.441406-15.867188 6.519531-20.328125 13.578125-5.640625-2.15625-9.652344-7.601562-9.652344-14 0-5.050781 2.503906-9.507812 6.332031-12.226562 1.425781-.585938 2.796875-1.273438 4.105469-2.0625 1.4375-.457032 2.972656-.710938 4.5625-.710938 1.546875 0 3.039062.234375 4.441406.667969 2.476563 4.03125 5.863282 7.433593 9.894532 9.910156.429687 1.394531.664062 2.882813.664062 4.421875 0 .140625-.015625.28125-.019531.421875zm60.019531-.421875c0-5.050781-2.503906-9.507812-6.332031-12.226562-1.425781-.585938-2.796875-1.273438-4.105469-2.0625-1.4375-.457032-2.972656-.710938-4.5625-.710938-1.546875 0-3.039062.234375-4.441406.667969-2.476563 4.03125-5.863282 7.433593-9.894532 9.90625-.429687 1.398437-.664062 2.886719-.664062 4.425781 0 8.285156 6.714844 15 15 15s15-6.714844 15-15zm-95 35c-8.285156 0-15 6.714844-15 15s6.714844 15 15 15 15-6.714844 15-15-6.714844-15-15-15zm100-90c-8.285156 0-15 6.714844-15 15s6.714844 15 15 15 15-6.714844 15-15-6.714844-15-15-15zm-100 30c8.285156 0 15-6.714844 15-15s-6.714844-15-15-15-15 6.714844-15 15 6.714844 15 15 15zm90 60c-8.285156 0-15 6.714844-15 15s6.714844 15 15 15 15-6.714844 15-15-6.714844-15-15-15zm-50-20c-8.285156 0-15 6.714844-15 15s6.714844 15 15 15 15-6.714844 15-15-6.714844-15-15-15zm10-60c-8.285156 0-15 6.714844-15 15s6.714844 15 15 15 15-6.714844 15-15-6.714844-15-15-15zm0 0" fill="#fc5426"/></svg>