<svg id="Capa_1" enable-background="new 0 0 511.957 511.957" height="512" viewBox="0 0 511.957 511.957" width="512" xmlns="http://www.w3.org/2000/svg"><g><g><circle cx="255.814" cy="255.633" fill="#dbedff" r="248.499"/><path d="m68.142 255.633c0-126.945 95.191-231.645 218.085-246.644-9.969-1.217-20.116-1.855-30.414-1.855-137.242 0-248.499 111.257-248.499 248.5s111.257 248.499 248.499 248.499c10.298 0 20.445-.638 30.414-1.855-122.893-14.999-218.085-119.7-218.085-246.645z" fill="#b5dcff"/><circle cx="255.814" cy="255.633" fill="#b5dcff" r="189.709"/><path d="m126.932 255.633c0-94.419 68.982-172.716 159.295-187.271-9.904-1.596-20.06-2.438-30.414-2.438-104.773 0-189.709 84.936-189.709 189.709s84.936 189.709 189.709 189.709c10.354 0 20.51-.842 30.414-2.438-90.313-14.555-159.295-92.851-159.295-187.271z" fill="#8bcaff"/><path d="m396.814 214.333c12.694-12.669 7.954-35.709-9.082-41.953-3.299-1.209-5.403-4.346-5.116-7.627 1.532-17.517-15.702-30.969-31.93-26.713-3.992 1.043-7.964-.902-9.451-4.631-6.769-16.971-30.41-21.423-42.733-7.47-2.047 2.318-5.367 3.114-8.26 1.977-15.727-6.167-34.113 4.916-34.762 22.819l-.203 1.958c23.559-3.006 42.498 9.443 50.676 27.208 3.218 6.99 8.087 13.406 14.473 19.071 14.572 12.926 24.807 30.428 28.396 52.259 15.796-7.395 33.562-4.621 45.723 10.397 12.092-11.097 11.349-27.159 2.258-36.949-2.746-2.958-2.742-7.599.011-10.346z" fill="#64d465"/><g><g><path d="m320.426 198.973c2.833 2.513 5.496 5.204 7.984 8.06.303-1.62.101-3.362-.669-5.002-7.145-15.179 2.939-34.578 20.442-36.266 3.279-.316 5.979-2.957 6.566-6.421 1.486-8.765 7.478-15.353 14.937-18.607-5.609-3.223-12.388-4.431-19-2.696-3.992 1.043-7.964-.902-9.451-4.631-6.769-16.971-30.41-21.423-42.733-7.47-2.047 2.318-5.367 3.114-8.26 1.977-15.727-6.167-34.113 4.916-34.762 22.819l-.203 1.958c23.559-3.006 42.498 9.443 50.676 27.208 3.218 6.99 8.087 13.406 14.473 19.071z" fill="#40c140"/></g></g><path d="m110.584 202.199c0-7.265 5.944-13.209 13.209-13.209h31.652v-37.669c0-7.265-5.944-13.209-13.209-13.209h-67.304c-7.265 0-13.209 5.944-13.209 13.209v67.304c0 7.265 5.944 13.209 13.209 13.209h35.652z" fill="#ce775f"/><path d="m89.858 218.626v-67.304c0-7.265 5.944-13.209 13.209-13.209h-28.135c-7.265 0-13.209 5.944-13.209 13.209v67.304c0 7.265 5.944 13.209 13.209 13.209h28.135c-7.265 0-13.209-5.944-13.209-13.209z" fill="#c0694e"/><path d="m349.04 249.474c2.242 13.61 1.474 26.913-2.743 40.817 19.227-1.74 34.114 9.779 39.218 25.052l.206.615.542-.355c10.796-7.062 17.242-18.964 17.242-31.837 0-27.223-28.304-46.515-54.465-34.292z" fill="#f87c68"/><g><path d="m369.867 282.796c0-12.841 6.53-24.154 16.449-30.807-10.375-6.825-24.095-8.674-37.275-2.515 2.242 13.61 1.474 26.913-2.743 40.817 10.5-.95 19.7 2.06 26.725 7.47-2.024-4.578-3.156-9.638-3.156-14.965z" fill="#ec625e"/></g><path d="m346.614 289.245c-3.943 13.03-10.34 23.969-19.162 33.856 20.004 3.017 32.357 19.472 32.357 36.745 0 1.105-.054 2.227-.164 3.432l-.065.714.693-.186c16.577-4.446 28.154-19.548 28.154-36.724-.001-21.695-18.449-39.943-41.813-37.837z" fill="#ec625e"/><g><path d="m377.86 300.804c-7.615-7.964-18.722-12.688-31.246-11.56-3.942 13.03-10.34 23.969-19.162 33.856 8.68 1.309 15.916 5.15 21.331 10.489 1.499-16.231 13.458-29.426 29.077-32.785z" fill="#df4854"/></g><path d="m328.247 322.21c-7.836 8.792-15.7 13.069-21.84 26.408-4.023 8.739-10.796 16.47-20.14 21.855 5.122 16.957 20.45 27.398 36.516 27.398 20.968 0 38.026-17.058 38.026-38.026 0-18.2-13.331-34.723-32.562-37.635z" fill="#f87c68"/><path d="m316.867 360.04c0-15.417 9.412-28.632 22.802-34.222-3.492-1.743-7.322-2.988-11.422-3.609-7.836 8.792-15.699 13.069-21.84 26.408-4.023 8.739-10.796 16.47-20.14 21.855 5.122 16.957 20.45 27.398 36.516 27.398 5.91 0 11.51-1.356 16.504-3.772-13.186-5.68-22.42-18.788-22.42-34.058z" fill="#ec625e"/><path d="m175.48 264.155c0-25.332 9.698-47.152 26.812-63.225-.146-7.141-6.021-13.94-13.195-13.94h-67.304c-7.265 0-13.209 5.944-13.209 13.209v67.304c0 7.265 5.944 13.209 13.209 13.209h55.244c-1.02-5.362-1.557-10.896-1.557-16.557z" fill="#ce775f"/><path d="m136.719 267.503v-67.304c0-7.265 5.944-13.209 13.209-13.209h-28.135c-7.265 0-13.209 5.944-13.209 13.209v67.304c0 7.265 5.944 13.209 13.209 13.209h28.135c-7.265 0-13.209-5.944-13.209-13.209z" fill="#c0694e"/><path d="m321.09 198.225c-5.934-5.263-10.912-11.536-14.228-18.741-7.701-16.73-24.613-28.344-44.238-28.344s-36.537 11.614-44.238 28.344c-3.317 7.205-8.295 13.478-14.229 18.741-18.199 16.142-29.676 39.69-29.676 65.931s11.477 49.788 29.676 65.931c5.934 5.263 10.912 11.536 14.229 18.741 7.701 16.73 24.613 28.344 44.238 28.344s36.537-11.614 44.238-28.344c3.317-7.205 8.295-13.478 14.229-18.741 18.199-16.142 29.676-39.69 29.676-65.931-.001-26.241-11.478-49.789-29.677-65.931z" fill="#ffe5a0"/><path d="m265.885 348.827c-3.317-7.205-8.295-13.478-14.229-18.741-18.199-16.142-29.676-39.69-29.676-65.931s11.477-49.788 29.676-65.931c5.934-5.263 10.912-11.536 14.229-18.741 4.317-9.377 11.528-17.146 20.488-22.164-7.025-3.935-15.125-6.18-23.75-6.18-19.625 0-36.537 11.614-44.238 28.344-3.317 7.205-8.295 13.478-14.229 18.741-18.199 16.142-29.676 39.69-29.676 65.931s11.477 49.788 29.676 65.931c5.934 5.263 10.912 11.536 14.229 18.741 7.701 16.73 24.613 28.344 44.238 28.344 8.625 0 16.725-2.245 23.75-6.18-8.96-5.018-16.171-12.787-20.488-22.164z" fill="#f2ce7e"/><circle cx="262.623" cy="264.155" fill="#fcc101" r="43.811"/><path d="m262.623 264.155c0-16.213 8.814-30.359 21.906-37.935-6.446-3.73-13.923-5.876-21.906-5.876-24.196 0-43.811 19.615-43.811 43.811s19.615 43.811 43.811 43.811c7.983 0 15.46-2.146 21.906-5.876-13.092-7.575-21.906-21.721-21.906-37.935z" fill="#f2ab08"/></g><g><path d="m255.979 511.957c141.48 0 255.979-114.488 255.979-255.979-.001-141.48-114.488-255.978-255.979-255.978-141.48 0-255.979 114.486-255.979 255.979 0 68.375 26.626 132.656 74.975 181.004 48.347 48.348 112.629 74.974 181.004 74.974zm0-496.957c133.19 0 240.979 107.779 240.979 240.979 0 133.189-107.779 240.979-240.979 240.979-133.189-.001-240.979-107.778-240.979-240.979 0-133.189 107.777-240.979 240.979-240.979z"/><path d="m242.311 311.541c3.797 1.657 8.217-.079 9.873-3.875s-.078-8.217-3.875-9.873c-13.249-5.781-21.811-18.849-21.811-33.292 0-20.022 16.289-36.311 36.312-36.311 20.021 0 36.311 16.289 36.311 36.311 0 14.443-8.561 27.511-21.81 33.292-3.797 1.656-5.531 6.077-3.875 9.874 1.659 3.802 6.085 5.53 9.873 3.875 18.718-8.167 30.812-26.631 30.812-47.04 0-28.293-23.018-51.311-51.311-51.311s-51.312 23.018-51.312 51.311c0 20.408 12.095 38.872 30.813 47.039z"/><path d="m255.979 453.172c102.502 0 187.141-78.341 196.351-179.01.377-4.125-2.66-7.774-6.785-8.152-4.128-.381-7.774 2.661-8.152 6.786-8.514 93.049-86.775 165.376-181.413 165.376-100.462 0-182.193-81.731-182.193-182.193 0-5.407.245-10.866.731-16.308.2.006.4.009.602.009h26.152v28.169c0 11.419 9.29 20.708 20.709 20.708h48.28c4.739 18.183 14.78 34.778 29.107 47.485 5.501 4.879 9.67 10.352 12.393 16.266 12.259 26.632 43.423 39.759 71.361 28.876 7.654 14.653 22.772 24.032 39.85 24.032 21.698 0 39.859-15.429 44.092-35.891 17.032-6.693 28.55-23.26 28.55-41.899 0-3.057-.309-6.042-.893-8.929 10.086-8.508 15.972-21.001 15.972-34.386 0-8.421-2.329-16.306-6.369-23.054 8.84-12.38 7.829-29.255-2.568-40.454-.368-.396-.447-1.039-.162-1.323 16.027-15.995 10.101-44.761-11.437-52.657-.558-.204-.904-.66-.878-.958 1.926-22.042-19.52-38.952-40.053-33.567-.643.167-1.466.004-1.766-.751-8.551-21.438-38.091-26.974-53.643-9.365-.231.26-.676.363-1.016.229-18.007-7.061-38.984 3.796-42.982 23.317-16.547 3.959-30.768 15.323-38.06 31.166-1.693 3.677-3.947 7.183-6.73 10.482-3.814-4.48-9.481-7.339-15.746-7.339h-26.152v-28.168c0-11.416-9.287-20.709-20.708-20.709h-18.985c34.369-36.52 81.842-57.173 132.541-57.173 94.68 0 172.903 72.366 181.413 165.376.378 4.125 4.009 7.163 8.152 6.786 4.125-.377 7.162-4.027 6.785-8.152-9.216-100.739-93.921-179.01-196.351-179.01-59.468 0-114.82 26.265-152.475 72.173h-28.385c-11.418 0-20.708 9.29-20.708 20.708v67.304c0 5.509 2.176 10.509 5.696 14.223-.874 7.581-1.321 15.227-1.321 22.784 0 108.732 88.461 197.193 197.194 197.193zm66.991-62.956c-11.28 0-21.594-6.475-26.681-16.263 12.78-9.463 17.241-21.172 18.66-23.843 2.697-5.077 6.491-9.8 11.304-14.069 1.616-1.434 3.491-3.232 4.953-4.725 13.306 3.779 23.016 16.884 21.655 31.663v.011c-1.419 15.248-14.28 27.226-29.891 27.226zm44.331-37.843c-2.545-14.419-12.391-27.151-25.985-33.285.5-1 6.55-8.79 11.282-21.607 15.847 1.052 28.015 14.264 28.015 29.946-.001 10.205-5.175 19.482-13.312 24.946zm21.374-48.973c-7.287-11.572-19.256-18.857-31.98-20.587 1.676-8.633 2.234-18.196 1.298-27.729 19.054-5.044 37.699 9.396 37.699 29.027-.001 7.167-2.533 13.954-7.017 19.289zm-101.351-167.225c6.207 2.434 13.333.72 17.735-4.264 8.324-9.429 24.143-5.85 28.466 4.992 3.049 7.647 11.428 11.819 19.503 9.705 10.631-2.787 22.319 6.182 21.306 17.75-.621 7.099 3.763 13.822 10.659 16.349 11.477 4.207 14.118 19.856 6.004 27.955-6.055 6.041-6.158 15.77-.235 22.148 4.695 5.057 5.759 12.278 3.205 18.279-11.144-9.036-25.576-11.885-38.621-8.814-4.619-17.599-14.579-34.443-29.093-47.314-5.076-4.501-9.493-9.969-12.393-16.266-8.637-18.763-27.092-31.372-47.737-32.609 3.975-7.446 13.252-11.029 21.201-7.911zm-61.94 46.79c14.645-31.812 60.141-31.951 74.852 0 3.426 7.443 8.701 14.685 16.064 21.215 13.233 11.739 22.408 27.716 25.75 45.375.006.032.012.063.018.095 5.228 27.801-4.567 56.37-25.768 75.169-7.063 6.265-12.469 13.403-16.064 21.215-14.715 31.955-60.211 31.804-74.852.001-3.596-7.812-9-14.95-16.064-21.216-17.261-15.31-27.152-37.329-27.152-60.32 0-23.037 9.905-45.019 27.152-60.32 7.063-6.264 12.468-13.402 16.064-21.214zm-31.103 14.854c-17.633 18.137-27.114 42.223-27.114 66.681 0 2.878.179 6.439.427 9.057h-45.614c-3.147 0-5.709-2.561-5.709-5.708 0-6.71 0-60.979 0-67.304 0-3.14 2.555-5.708 5.709-5.708h67.304c2.137-.002 4.023 1.209 4.997 2.982zm-124.871-46.152c0-3.147 2.561-5.708 5.708-5.708h67.305c3.147 0 5.708 2.561 5.708 5.708v28.168h-26.151c-11.419 0-20.709 9.29-20.709 20.709v24.135h-26.153c-.25 0-.498-.02-.745-.054-.034-.004-.068-.01-.102-.016-.766-.12-1.509-.398-2.183-.829-.069-.044-.143-.076-.213-.118-1.487-1.031-2.464-2.749-2.464-4.691v-67.304z"/></g></g></svg>