<svg height="512" viewBox="0 0 512 512" width="512" xmlns="http://www.w3.org/2000/svg"><g id="Flat"><path d="m35.383 148.52h441.235v214.96h-441.235z" fill="#7a432a" transform="matrix(.707 -.707 .707 .707 -106.039 256)"/><path d="m488 176-312 312-97.84-97.84c152.44-49.26 259.35-112.7 374.13-249.87z" fill="#6e3c26"/><g fill="#92563a"><path d="m307.716 83.716h56.569v56.569h-56.569z" transform="matrix(.707 -.707 .707 .707 19.216 270.392)"/><path d="m371.716 147.716h56.569v56.569h-56.569z" transform="matrix(.707 -.707 .707 .707 -7.294 334.392)"/><path d="m243.716 147.716h56.569v56.569h-56.569z" transform="matrix(.707 -.707 .707 .707 -44.784 243.882)"/><path d="m307.716 211.716h56.569v56.569h-56.569z" transform="matrix(.707 -.707 .707 .707 -71.294 307.882)"/><path d="m179.716 211.716h56.569v56.569h-56.569z" transform="matrix(.707 -.707 .707 .707 -108.784 217.373)"/></g><path d="m93.373 288.52h45.255v214.96h-45.255z" fill="#ffb531" transform="matrix(.707 -.707 .707 .707 -246.039 198.01)"/><path d="m384 280-176 176-152-152 88-88 182.28 48.61z" fill="#f35244"/><path d="m89.373 288h45.255v16h-45.255z" fill="#fc685b" transform="matrix(.707 -.707 .707 .707 -176.505 165.905)"/><path d="m136.609 254.375h18.031v16h-18.031z" fill="#fc685b" transform="matrix(.707 -.707 .707 .707 -142.878 179.833)"/><path d="m384 280-176 176-82.27-82.27c75.25-27.82 139.52-61.32 200.55-109.12z" fill="#e64c3f"/><path d="m208 456-32 32-97.84-97.84q24.54-7.935 47.57-16.43z" fill="#ffa912"/><path d="m144 216 128 104 112-40z" fill="#f2dec2"/></g></svg>