<svg id="Capa_1" enable-background="new 0 0 507.206 507.206" height="512" viewBox="0 0 507.206 507.206" width="512" xmlns="http://www.w3.org/2000/svg"><g><path d="m409.208 132.266-30-.119c.096-24.137-2.376-65.915 31.611-108.396l3.93-4.913 23.428 18.738-3.931 4.914c-15.996 19.995-24.86 45.105-24.962 70.708z" fill="#4fa811"/><path d="m47.462-2.203h30v68.819h-30z" fill="#4fa811" transform="matrix(.581 -.814 .814 .581 -.05 64.314)"/><path d="m207.172 415.296-11.92-9.1c-55.334 12.028-36.978 8.038-81.24 17.66-3.57 5.029-7.36 9.93-11.39 14.67l-22.86-19.42c62.61-73.67 56.77-186.25-13.29-256.301-34.759-34.779-33.223-93.553 7.19-122.84 29.93-21.67 74.63-22.15 105.51 8.73 100.82 100.831 110.95 257.921 28 366.601z" fill="#e63950"/><path d="m207.172 415.296-11.92-9.1-44.67 9.71 4.36-8.05c69.64-117.65 41.17-272.471-70.78-360.78-3.41-2.69-6.92-5.06-10.5-7.11 29.93-21.67 74.63-22.15 105.51 8.73 100.82 100.83 110.95 257.92 28 366.6z" fill="#d6141c"/><path d="m481.462 204.206c0 169.164-137.253 303-303 303h-79.36c-22.76 0-39.51-14.8-45.38-33.1-.255-.274-2.2-7.857-2.2-11.881-1.4-24.892 18.132-49.02 48.01-49.02 114.65 0 207.93-93.28 207.93-207.93 0-63.131 62.457-103.199 117.1-82.73 33.914 12.654 56.9 44.506 56.9 81.661z" fill="#e63950"/><path d="m481.462 204.206c0 169.164-137.253 303-303 303h-79.36c-22.76 0-39.51-14.8-45.38-33.1-.243-.261-.14-3.319-2.28-11.881h.08c283.344-8.679 349.727-121.53 343.2-345.02 7.782.623 18.116.012 35.36 7.59 28.898 12.697 51.38 42.888 51.38 79.411z" fill="#d6141c"/></g></svg>