<svg id="Capa_1" enable-background="new 0 0 510.181 510.181" height="512" viewBox="0 0 510.181 510.181" width="512" xmlns="http://www.w3.org/2000/svg"><g><ellipse cx="255.086" cy="114.366" fill="#f9fbfc" rx="123.059" ry="51.77"/><g fill="#eaa895"><path d="m362.932 91.301c-1.713 0-3.102 1.389-3.102 3.102s1.389 3.103 3.102 3.103 3.102-1.389 3.102-3.103c.001-1.713-1.388-3.102-3.102-3.102z"/><path d="m374.001 101.009c-.223-.051-.454-.084-.692-.084-1.713 0-3.102 1.389-3.102 3.102s1.389 3.103 3.102 3.103c1.319 0 2.438-.827 2.887-1.987-.598-1.399-1.335-2.777-2.195-4.134z"/><path d="m362.932 117.506c1.713 0 3.102-1.389 3.102-3.103 0-1.713-1.389-3.102-3.102-3.102s-3.102 1.389-3.102 3.102c0 1.714 1.389 3.103 3.102 3.103z"/><path d="m373.309 120.925c-1.713 0-3.102 1.389-3.102 3.102s1.389 3.103 3.102 3.103c.427 0 .834-.087 1.204-.243.697-1.182 1.301-2.379 1.802-3.591-.329-1.359-1.546-2.371-3.006-2.371z"/><path d="m362.932 137.506c1.713 0 3.102-1.389 3.102-3.103 0-1.713-1.389-3.102-3.102-3.102s-3.102 1.389-3.102 3.102c0 1.714 1.389 3.103 3.102 3.103z"/><path d="m342.932 91.301c-1.713 0-3.102 1.389-3.102 3.102s1.389 3.103 3.102 3.103 3.102-1.389 3.102-3.103c.001-1.713-1.388-3.102-3.102-3.102z"/><path d="m353.309 100.925c-1.713 0-3.102 1.389-3.102 3.102s1.389 3.103 3.102 3.103 3.102-1.389 3.102-3.103-1.389-3.102-3.102-3.102z"/><path d="m342.932 111.301c-1.713 0-3.102 1.389-3.102 3.102s1.389 3.103 3.102 3.103 3.102-1.389 3.102-3.103c.001-1.713-1.388-3.102-3.102-3.102z"/><path d="m353.309 120.925c-1.713 0-3.102 1.389-3.102 3.102s1.389 3.103 3.102 3.103 3.102-1.389 3.102-3.103-1.389-3.102-3.102-3.102z"/><path d="m342.932 131.301c-1.713 0-3.102 1.389-3.102 3.102s1.389 3.103 3.102 3.103 3.102-1.389 3.102-3.103c.001-1.712-1.388-3.102-3.102-3.102z"/><path d="m353.309 140.925c-1.713 0-3.102 1.389-3.102 3.102 0 1.036.512 1.947 1.292 2.51 1.7-.901 3.329-1.827 4.886-2.774-.137-1.588-1.453-2.838-3.076-2.838z"/><path d="m322.932 77.506c1.713 0 3.102-1.389 3.102-3.103 0-1.713-1.389-3.102-3.102-3.102s-3.102 1.389-3.102 3.102c0 1.714 1.389 3.103 3.102 3.103z"/><path d="m333.309 80.925c-1.713 0-3.102 1.389-3.102 3.102s1.389 3.103 3.102 3.103 3.102-1.389 3.102-3.103-1.389-3.102-3.102-3.102z"/><path d="m324.557 97.035c.884-.546 1.477-1.516 1.477-2.632 0-1.713-1.389-3.102-3.102-3.102-1.08 0-2.028.553-2.584 1.389 1.554 1.415 2.959 2.865 4.209 4.345z"/><path d="m333.309 100.925c-1.713 0-3.102 1.389-3.102 3.102s1.389 3.103 3.102 3.103 3.102-1.389 3.102-3.103-1.389-3.102-3.102-3.102z"/><path d="m333.309 120.925c-1.713 0-3.102 1.389-3.102 3.102s1.389 3.103 3.102 3.103 3.102-1.389 3.102-3.103-1.389-3.102-3.102-3.102z"/><path d="m322.905 131.329c-1.713 0-3.102 1.389-3.102 3.102s1.389 3.102 3.102 3.102 3.102-1.389 3.102-3.102c0-1.714-1.389-3.102-3.102-3.102z"/><path d="m313.356 140.949c-1.713 0-3.102 1.389-3.102 3.102s1.389 3.103 3.102 3.103 3.102-1.389 3.102-3.103c.001-1.714-1.388-3.102-3.102-3.102z"/><path d="m282.929 151.281c-1.713 0-3.102 1.389-3.102 3.102s1.389 3.103 3.102 3.103 3.102-1.389 3.102-3.103c0-1.713-1.389-3.102-3.102-3.102z"/><path d="m320.321 136.066c.551.863 1.511 1.439 2.611 1.439 1.713 0 3.102-1.389 3.102-3.103 0-1.133-.614-2.114-1.521-2.655-1.246 1.472-2.646 2.913-4.192 4.319z"/><path d="m333.309 140.925c-1.713 0-3.102 1.389-3.102 3.102s1.389 3.103 3.102 3.103 3.102-1.389 3.102-3.103-1.389-3.102-3.102-3.102z"/><path d="m326.035 154.403c0-1.713-1.389-3.102-3.102-3.102s-3.102 1.389-3.102 3.102 1.389 3.103 3.102 3.103c.105 0 .203-.021.305-.031.355-.1.71-.2 1.063-.301 1.024-.507 1.734-1.551 1.734-2.771z"/><path d="m306.035 74.403c0-1.713-1.389-3.102-3.102-3.102s-3.102 1.389-3.102 3.102 1.389 3.103 3.102 3.103 3.102-1.389 3.102-3.103z"/><path d="m286.011 74.475c0-1.713-1.389-3.102-3.102-3.102s-3.102 1.389-3.102 3.102 1.389 3.103 3.102 3.103c1.713-.001 3.102-1.39 3.102-3.103z"/><path d="m316.367 84.023c0-1.713-1.389-3.102-3.102-3.102s-3.102 1.389-3.102 3.102 1.389 3.103 3.102 3.103 3.102-1.389 3.102-3.103z"/><path d="m325.987 94.427c0-1.713-1.389-3.102-3.102-3.102s-3.102 1.389-3.102 3.102 1.389 3.103 3.102 3.103 3.102-1.389 3.102-3.103z"/><path d="m313.309 87.13c1.713 0 3.102-1.389 3.102-3.103s-1.389-3.102-3.102-3.102-3.102 1.389-3.102 3.102c0 .484.121.937.318 1.345.925.574 1.823 1.157 2.693 1.748.031.001.06.01.091.01z"/><path d="m310.207 144.027c0 1.713 1.389 3.103 3.102 3.103s3.102-1.389 3.102-3.103c0-1.45-.999-2.659-2.345-2.998-1.214.848-2.485 1.68-3.809 2.496-.027.164-.05.33-.05.502z"/><path d="m299.83 154.403c0 1.713 1.389 3.103 3.102 3.103s3.102-1.389 3.102-3.103c0-1.713-1.389-3.102-3.102-3.102s-3.102 1.39-3.102 3.102z"/><path d="m282.932 71.301c-.94 0-1.773.427-2.342 1.088 1.845.561 3.651 1.143 5.417 1.745-.138-1.585-1.453-2.833-3.075-2.833z"/><path d="m282.932 157.506c1.648 0 2.982-1.288 3.083-2.911-1.784.608-3.609 1.196-5.474 1.763.57.695 1.423 1.148 2.391 1.148z"/><path d="m276.411 164.027c0-1.713-1.389-3.102-3.102-3.102s-3.102 1.389-3.102 3.102c0 .626.189 1.208.509 1.695 1.804-.096 3.593-.211 5.372-.34.201-.411.323-.867.323-1.355z"/></g><ellipse cx="255.086" cy="114.366" fill="#eaa895" rx="76.619" ry="28.301"/><ellipse cx="127.541" cy="242.311" fill="#f9fbfc" rx="123.059" ry="51.77"/><ellipse cx="127.541" cy="242.311" fill="#eaa895" rx="76.619" ry="28.301"/><ellipse cx="382.631" cy="242.311" fill="#f9fbfc" rx="123.059" ry="51.77"/><g fill="#eaa895"><path d="m499.83 234.403c0 1.713 1.389 3.103 3.102 3.103.786 0 1.496-.302 2.042-.784-.469-1.836-1.168-3.643-2.081-5.416-1.694.02-3.063 1.397-3.063 3.097z"/><path d="m502.932 251.301c-1.713 0-3.102 1.389-3.102 3.102 0 .917.405 1.732 1.037 2.3 1.182-1.721 2.161-3.478 2.917-5.269-.272-.077-.554-.133-.852-.133z"/><path d="m479.83 214.403c0 1.713 1.389 3.103 3.102 3.103s3.102-1.389 3.102-3.103c0-.061-.015-.119-.018-.179-1.387-.902-2.84-1.784-4.354-2.646-1.078.486-1.832 1.566-1.832 2.825z"/><path d="m493.309 220.925c-1.713 0-3.102 1.389-3.102 3.102s1.389 3.103 3.102 3.103 3.102-1.389 3.102-3.103-1.389-3.102-3.102-3.102z"/><path d="m482.932 231.301c-1.713 0-3.102 1.389-3.102 3.102s1.389 3.103 3.102 3.103 3.102-1.389 3.102-3.103c.001-1.712-1.388-3.102-3.102-3.102z"/><path d="m493.309 240.925c-1.713 0-3.102 1.389-3.102 3.102s1.389 3.103 3.102 3.103 3.102-1.389 3.102-3.103-1.389-3.102-3.102-3.102z"/><path d="m482.932 251.301c-1.713 0-3.102 1.389-3.102 3.102s1.389 3.102 3.102 3.102 3.102-1.389 3.102-3.102c.001-1.712-1.388-3.102-3.102-3.102z"/><path d="m493.309 260.925c-1.713 0-3.102 1.389-3.102 3.102 0 1.014.493 1.905 1.245 2.471 1.641-1.304 3.161-2.639 4.538-4.006-.536-.932-1.529-1.567-2.681-1.567z"/><path d="m479.867 274.041c1.491-.808 2.926-1.635 4.304-2.479-.38-.166-.797-.26-1.238-.26-1.59-.001-2.885 1.199-3.066 2.739z"/><path d="m471.41 206.464c.393.307.856.523 1.368.612-.453-.205-.907-.41-1.368-.612z"/><path d="m462.932 211.301c-1.713 0-3.102 1.389-3.102 3.102s1.389 3.103 3.102 3.103 3.102-1.389 3.102-3.103c.001-1.712-1.388-3.102-3.102-3.102z"/><path d="m473.309 220.925c-1.713 0-3.102 1.389-3.102 3.102s1.389 3.103 3.102 3.103 3.102-1.389 3.102-3.103-1.389-3.102-3.102-3.102z"/><path d="m462.932 231.301c-1.713 0-3.102 1.389-3.102 3.102s1.389 3.103 3.102 3.103 3.102-1.389 3.102-3.103c.001-1.712-1.388-3.102-3.102-3.102z"/><path d="m473.309 240.925c-1.713 0-3.102 1.389-3.102 3.102s1.389 3.103 3.102 3.103 3.102-1.389 3.102-3.103-1.389-3.102-3.102-3.102z"/><path d="m462.932 251.301c-1.713 0-3.102 1.389-3.102 3.102s1.389 3.102 3.102 3.102 3.102-1.389 3.102-3.102c.001-1.712-1.388-3.102-3.102-3.102z"/><path d="m473.309 260.925c-1.713 0-3.102 1.389-3.102 3.102s1.389 3.103 3.102 3.103 3.102-1.389 3.102-3.103c0-1.713-1.389-3.102-3.102-3.102z"/><path d="m462.932 271.301c-1.713 0-3.102 1.389-3.102 3.102s1.389 3.102 3.102 3.102 3.102-1.389 3.102-3.102c.001-1.713-1.388-3.102-3.102-3.102z"/><path d="m442.932 197.506c.295 0 .574-.054.844-.131-.965-.233-1.94-.46-2.921-.682.551.5 1.275.813 2.077.813z"/><path d="m453.309 207.13c1.713 0 3.102-1.389 3.102-3.103s-1.389-3.102-3.102-3.102-3.102 1.389-3.102 3.102 1.389 3.103 3.102 3.103z"/><path d="m450.207 264.027c0 1.713 1.389 3.103 3.102 3.103s3.102-1.389 3.102-3.103c0-1.713-1.389-3.102-3.102-3.102s-3.102 1.389-3.102 3.102z"/><path d="m439.83 274.403c0 1.713 1.389 3.102 3.102 3.102s3.102-1.389 3.102-3.102-1.389-3.102-3.102-3.102-3.102 1.389-3.102 3.102z"/><path d="m453.309 280.925c-1.713 0-3.102 1.389-3.102 3.102 0 .526.143 1.015.375 1.449 1.974-.551 3.911-1.123 5.803-1.72-.14-1.584-1.456-2.831-3.076-2.831z"/><path d="m419.83 194.403c0 1.713 1.389 3.103 3.102 3.103s3.102-1.389 3.102-3.103c0-.19-.023-.374-.056-.555-1.91-.302-3.843-.585-5.798-.849-.216.424-.35.897-.35 1.404z"/><path d="m436.411 204.027c0-1.713-1.389-3.102-3.102-3.102s-3.102 1.389-3.102 3.102 1.389 3.103 3.102 3.103 3.102-1.39 3.102-3.103z"/><path d="m416.411 204.027c0-1.713-1.389-3.102-3.102-3.102s-3.102 1.389-3.102 3.102 1.389 3.103 3.102 3.103 3.102-1.39 3.102-3.103z"/><path d="m430.207 284.027c0 1.713 1.389 3.103 3.102 3.103s3.102-1.389 3.102-3.103c0-1.713-1.389-3.102-3.102-3.102s-3.102 1.389-3.102 3.102z"/><path d="m410.206 284.027c0 1.713 1.389 3.103 3.102 3.103s3.102-1.389 3.102-3.103c0-1.713-1.389-3.102-3.102-3.102s-3.102 1.389-3.102 3.102z"/><path d="m406.035 194.403c0-1.713-1.389-3.102-3.102-3.102s-3.102 1.389-3.102 3.102 1.389 3.103 3.102 3.103 3.102-1.389 3.102-3.103z"/><path d="m402.932 291.301c-1.422 0-2.607.962-2.974 2.266 1.953-.116 3.892-.251 5.815-.405-.479-1.094-1.569-1.861-2.841-1.861z"/><path d="m386 294.061c-.173-1.55-1.472-2.76-3.068-2.76-1.593 0-2.89 1.205-3.067 2.751.922.009 1.838.029 2.765.029 1.128 0 2.25-.008 3.37-.02z"/><path d="m365.059 192.154c-.556-.525-1.301-.853-2.126-.853-.6 0-1.155.178-1.63.473 1.26.118 2.51.247 3.756.38z"/><path d="m365.914 293.594c-.117-.43-.322-.819-.598-1.153-1.688.183-3.39.352-5.106.505-.045.085-.099.164-.137.253 1.932.15 3.879.282 5.841.395z"/><path d="m446.009 214.43c0-1.713-1.389-3.102-3.102-3.102s-3.102 1.389-3.102 3.102 1.389 3.102 3.102 3.102c1.713.001 3.102-1.388 3.102-3.102z"/><path d="m456.339 224.028c0-1.713-1.389-3.102-3.102-3.102s-3.102 1.389-3.102 3.102 1.389 3.102 3.102 3.102 3.102-1.389 3.102-3.102z"/></g><ellipse cx="382.631" cy="242.311" fill="#e9c278" rx="76.619" ry="28.301"/><path d="m510.181 242.223h-.493c-.105-31.23-55.873-55.681-127.052-55.682v-72.263h-.493c-.105-31.23-55.876-55.682-127.057-55.682s-126.951 24.451-127.056 55.682h-.484v72.263c-.001 0-.003 0-.004 0-71.181 0-126.952 24.451-127.057 55.682h-.485v154.551h.508c1.13 30.812 56.516 54.81 127.033 54.81s125.903-23.998 127.033-54.81h.517.508c1.129 30.812 56.516 54.81 127.033 54.81s125.902-23.998 127.032-54.81h.518v-154.551zm-8.491.089c0 25.894-54.522 47.769-119.059 47.769s-119.06-21.876-119.06-47.769c0-25.895 54.522-47.77 119.06-47.77 64.537-.001 119.059 21.875 119.059 47.77zm-246.604-175.715c64.537 0 119.06 21.876 119.06 47.77 0 25.893-54.522 47.77-119.06 47.77-64.536 0-119.059-21.876-119.059-47.77s54.522-47.77 119.059-47.77zm-127.545 127.944c64.537 0 119.06 21.876 119.06 47.77s-54.522 47.769-119.06 47.769c-64.537 0-119.06-21.876-119.06-47.769 0-25.894 54.523-47.77 119.06-47.77z" fill="#31373d"/></g></svg>