<svg height="511pt" viewBox="0 -32 511.99993 511" width="511pt" xmlns="http://www.w3.org/2000/svg"><path d="m246.316406.503906c-54.417968-.402344-101.664062 30.496094-124.800781 75.761719-19.933594 39.011719-43.796875 75.929687-72.96875 108.613281-24.425781 27.363282-47.527344 67.886719-48.4960938 123.734375-.0351562 1.210938-.0507812 2.421875-.0507812 3.636719 0 75.070312 60.859375 135.929688 135.929688 135.929688.144531 0 .285156-.003907.429687-.003907 1.027344-.003906 2.054687-.015625 3.078125-.039062 135.46875-1.878907 244.710938-112.261719 244.710938-248.175781v-58.832032c0-76.582031-61.253907-140.058594-137.832032-140.625zm0 0" fill="#f0a65f"/><path d="m384.148438 199.960938v-58.832032c0-46.863281-22.941407-88.816406-58.292969-114.449218v-.003907c16.984375 23.386719 27 52.199219 27 83.15625v14.285157c0 25.1875-18.144531 46.675781-42.953125 51.011718-12.953125 2.265625-25.652344 3.742188-38.234375 4.457032-40.820313 2.316406-77.90625 18.507812-107.257813 46.828124-.785156.746094-1.5625 1.503907-2.332031 2.273438-23.757813 23.753906-36.839844 55.339844-36.839844 88.9375 0 19.675781 5.597657 37.507812 12.597657 52.113281 10.402343 21.710938-5.027344 47.03125-29.101563 47.101563-.195313 0-.394531 0-.589844 0-36.859375 0-60.398437-9.386719-82.699219-25.398438 24.667969 34.355469 64.960938 56.738282 110.484376 56.738282 135.253906-.660157 248.21875-112.472657 248.21875-248.21875zm0 0" fill="#e28540"/><path d="m312.195312 202.910156c-3.207031 0-6.207031-1.992187-7.347656-5.175781-.277344-.75-6.101562-15.949219-24.363281-22.320313-4.070313-1.421874-6.214844-5.871093-4.796875-9.941406 1.417969-4.066406 5.871094-6.222656 9.941406-4.796875 25.625 8.9375 33.601563 30.90625 33.929688 31.839844 1.429687 4.066406-.710938 8.519531-4.777344 9.949219-.855469.300781-1.726562.445312-2.585938.445312zm0 0" fill="#e28540"/><path d="m481.511719 207.679688c-29.496094-29.9375-72.164063-38.859376-109.515625-26.777344-32.183594 10.414062-65.371094 17.546875-99.144532 19.460937-28.28125 1.609375-63.023437 11.117188-94.042968 41.082031-.679688.644532-1.347656 1.296876-2.011719 1.960938-40.992187 40.992188-40.992187 107.449219 0 148.441406.078125.078125.15625.152344.234375.230469.566406.5625 1.128906 1.117187 1.703125 1.660156 74.996094 72.941407 194.914063 72.320313 269.125-1.890625l32.125-32.125c41.816406-41.816406 43.027344-109.917968 1.527344-152.042968zm0 0" fill="#f0a65f"/><g fill="#e28540"><path d="m481.511719 207.679688c-4.5-4.566407-9.308594-8.636719-14.351563-12.222657 29.882813 42.132813 25.199219 101.21875-12.511718 138.929688l-32.125 32.125c-69.949219 69.949219-180.496094 74.507812-255.765626 13.722656 3.015626 4.710937 11.402344 12.960937 11.976563 13.503906 74.996094 72.941407 194.914063 72.320313 269.125-1.890625l32.125-32.125c41.816406-41.816406 43.027344-109.917968 1.527344-152.042968zm0 0"/><path d="m153.53125 43.667969c.167969-.011719 16.941406-1.128907 33.238281 4.710937.871094.3125 1.757813.457032 2.632813.457032 3.203125 0 6.207031-1.984376 7.347656-5.171876 1.453125-4.058593-.65625-8.527343-4.714844-9.980468-11.089844-3.976563-22.199218-5.25-29.824218-5.601563-5.324219 3.980469-10.351563 8.324219-15.046876 13.007813 1.558594 1.738281 3.863282 2.769531 6.367188 2.578125zm0 0"/><path d="m199.8125 173.769531c-2.46875 0-4.894531-1.167969-6.414062-3.34375-10.925782-15.695312-35.074219-16.429687-35.316407-16.429687-4.308593-.054688-7.761719-3.589844-7.707031-7.902344.050781-4.277344 3.535156-7.707031 7.800781-7.707031h.097657c1.3125.015625 32.292968.652343 47.9375 23.117187 2.460937 3.539063 1.589843 8.402344-1.945313 10.863282-1.359375.949218-2.914063 1.402343-4.453125 1.402343zm0 0"/><path d="m306.984375 100.925781c-3.515625 0-6.710937-2.398437-7.578125-5.96875-4.28125-17.667969-24.363281-22.113281-25.214844-22.296875-4.207031-.886718-6.914062-5.011718-6.042968-9.222656.871093-4.207031 4.964843-6.917969 9.175781-6.066406 1.246093.25 30.609375 6.503906 37.253906 33.90625 1.015625 4.191406-1.558594 8.410156-5.746094 9.425781-.617187.148437-1.238281.222656-1.847656.222656zm0 0"/><path d="m105.101562 265.347656c-3.445312 0-6.59375-2.292968-7.53125-5.777344-5.804687-21.5625-33.761718-25.46875-34.042968-25.507812-4.261719-.558594-7.285156-4.464844-6.738282-8.730469.550782-4.265625 4.4375-7.285156 8.699219-6.753906 1.574219.195313 38.605469 5.179687 47.15625 36.933594 1.117188 4.164062-1.347656 8.445312-5.507812 9.566406-.683594.183594-1.363281.269531-2.035157.269531zm0 0"/><path d="m398.496094 175.90625c-7.078125.4375-14.121094 1.570312-21.019532 3.402344.585938 2.332031 2.230469 4.363281 4.628907 5.335937.246093.101563 24.671875 10.246094 27.449219 32.25.5 3.945313 3.859374 6.828125 7.734374 6.828125.328126 0 .65625-.019531.988282-.0625 4.277344-.542968 7.304687-4.445312 6.765625-8.722656-2.507813-19.867188-16.480469-32.425781-26.546875-39.03125zm0 0"/><path d="m342.363281 279.914062c-4.015625 0-7.429687-3.082031-7.765625-7.15625-1.664062-19.96875-25.355468-30.878906-25.589844-30.988281-3.921874-1.769531-5.683593-6.382812-3.925781-10.308593 1.757813-3.925782 6.351563-5.695313 10.285157-3.945313 1.320312.585937 32.347656 14.699219 34.785156 43.945313.359375 4.296874-2.832032 8.070312-7.128906 8.425781-.222657.019531-.441407.027343-.660157.027343zm0 0"/><path d="m423.535156 302.8125c-3.910156 0-7.285156-2.933594-7.746094-6.914062-1.570312-13.636719-14.601562-21.035157-14.730468-21.109376-3.753906-2.085937-5.132813-6.824218-3.066406-10.585937 2.066406-3.761719 6.761718-5.164063 10.535156-3.117187.828125.445312 20.253906 11.203124 22.769531 33.023437.492187 4.28125-2.578125 8.152344-6.859375 8.648437-.300781.035157-.605469.054688-.902344.054688zm0 0"/><path d="m201.878906 276.792969c-4.132812 0-7.578125-3.242188-7.789062-7.414063-.726563-14.566406-18.632813-18.28125-18.816406-18.320312-4.226563-.835938-6.972657-4.945313-6.136719-9.171875.839843-4.230469 4.949219-6.976563 9.175781-6.136719 10.382812 2.058594 30.304688 11.574219 31.367188 32.847656.214843 4.304688-3.101563 7.972656-7.40625 8.183594-.128907.007812-.261719.011719-.394532.011719zm0 0"/><path d="m336.324219 396.84375c-1.226563-4.132812-5.570313-6.484375-9.703125-5.253906-4.132813 1.226562-6.484375 5.574218-5.257813 9.703125 6.808594 22.890625-6.324219 39.992187-6.945312 40.777343-1.378907 1.730469-1.898438 3.867188-1.628907 5.902344 5.660157-.015625 11.320313-.28125 16.960938-.792968 5.003906-8.347657 13.484375-27.113282 6.574219-50.335938zm0 0"/></g></svg>